<?xml version="1.0" encoding="UTF-8"?>
<svg id="Layer_1" xmlns="http://www.w3.org/2000/svg" version="1.1" viewBox="0 0 545.4 814.5">
  <!-- Generator: Adobe Illustrator 30.4.0, SVG Export Plug-In . SVG Version: 2.1.3 Build 135)  -->
  <defs>
    <style>
      .st0 {
        fill-rule: evenodd;
      }

      .st0, .st1 {
        fill: #ed3438;
      }
    </style>
  </defs>
  <path class="st1" d="M183.5,763.8c-.2,0-.3,0-.4-.2-.1-.1-.2-.3-.2-.4s0-.3.2-.4c.1-.1.3-.2.4-.2s.3,0,.4.2c.1.1.2.3.2.4s0,.3-.2.4c-.1.1-.3.2-.4.2M180.5,760.2c.5,0,.9,0,1.2.3.3.2.4.4.4.7h-.9c0-.2-.3-.3-.6-.3s-.6.1-.6.3,0,.2.2.3c.1,0,.2.1.4.1.2,0,.3,0,.5,0,.2,0,.4,0,.5.2.2,0,.3.2.4.3.1.1.2.3.2.6,0,.3-.1.6-.4.8-.3.2-.7.3-1.2.3s-1.1-.1-1.5-.4v-.8c.5.2,1,.4,1.5.4s.4,0,.5,0c0,0,.1-.1.1-.3s0-.2-.2-.3c-.1,0-.3-.1-.5-.1-.2,0-.4,0-.6-.1-.2,0-.4-.2-.5-.3-.1-.2-.2-.4-.2-.6s.1-.6.4-.8c.2-.2.6-.3,1.1-.3ZM177,760.9c.4,0,.6.1.6.4s0,.3-.3.4c-.2,0-.6.1-1.1.2,0-.3,0-.6.2-.7.2-.2.4-.2.6-.2ZM178.3,762.6c-.1,0-.3.2-.5.2-.2,0-.5.1-.7.1-.5,0-.8-.2-.9-.5.8,0,1.4-.1,1.7-.3.3-.2.5-.4.5-.8s-.1-.6-.4-.8c-.2-.2-.6-.3-1.1-.3s-1,.2-1.4.5c-.3.3-.5.8-.5,1.3s.1,1,.4,1.3c.3.3.7.5,1.3.5s.7,0,.9-.1c.3,0,.5-.2.6-.3l-.2-.8ZM174.5,762.6l.2.8c-.4.3-.8.4-1.4.4s-1-.2-1.4-.5c-.3-.3-.5-.8-.5-1.4s.2-1,.5-1.3c.3-.3.7-.5,1.3-.5s.9.1,1.1.4c.2.3.4.6.4,1h-.9c0-.3-.2-.5-.6-.5s-.4,0-.6.2c-.1.2-.2.4-.2.7s0,.6.2.8c.2.2.4.3.7.3.4,0,.8-.1,1.2-.4ZM170.6,762.9v-1.3c0-.5-.1-.8-.3-1.1-.2-.3-.5-.4-1-.4s-.9.2-1.2.5c-.1-.4-.4-.5-.8-.5s-.3,0-.5,0v.7c.1,0,.3,0,.4,0v2.7h1v-1.9c0-.2,0-.4.2-.6.1-.2.3-.2.6-.2.4,0,.7.3.7.8v1.2c0,.3,0,.5.2.6.1,0,.3.1.6.1s.4,0,.6,0v-.7c-.2,0-.3,0-.4,0ZM164.9,760.9c.4,0,.6.1.6.4s0,.3-.3.4c-.2,0-.6.1-1.1.2,0-.3,0-.6.2-.7.2-.2.4-.2.6-.2ZM166.1,762.6c-.1,0-.3.2-.5.2-.2,0-.5.1-.7.1-.5,0-.8-.2-.9-.5.8,0,1.4-.1,1.7-.3.3-.2.5-.4.5-.8s-.1-.6-.4-.8c-.2-.2-.6-.3-1.1-.3s-1,.2-1.4.5c-.3.3-.5.8-.5,1.3s.1,1,.4,1.3c.3.3.7.5,1.3.5s.7,0,.9-.1c.3,0,.5-.2.6-.3l-.2-.8ZM162.4,760.2c-.3,0-.6.2-.8.6-.1-.4-.4-.6-.7-.6s-.3,0-.5,0v.7c.2,0,.3,0,.4,0v2.7h1v-1.6c0-.3,0-.6.2-.7.1-.2.3-.3.5-.3s.2,0,.3,0v-.9s-.2,0-.3,0ZM158.4,760.9c.4,0,.6.1.6.4s0,.3-.3.4c-.2,0-.6.1-1.1.2,0-.3,0-.6.2-.7.2-.2.4-.2.6-.2ZM159.7,762.6c-.1,0-.3.2-.5.2-.2,0-.5.1-.7.1-.5,0-.8-.2-.9-.5.8,0,1.4-.1,1.7-.3.3-.2.5-.4.5-.8s-.1-.6-.4-.8c-.2-.2-.6-.3-1.1-.3s-1,.2-1.4.5c-.3.3-.5.8-.5,1.3s.1,1,.4,1.3c.3.3.7.5,1.3.5s.7,0,.9-.1c.3,0,.5-.2.6-.3l-.2-.8ZM155.8,759.4c.1,0,.3,0,.5.1v-.8c-.2-.1-.5-.2-.8-.2-.8,0-1.2.4-1.2,1.3v.5h-.6v.8h.6v2.7h1v-2.7h1v-.8h-1v-.4c0-.3.2-.5.5-.5ZM153.3,759.4c.1,0,.3,0,.5.1v-.8c-.2-.1-.5-.2-.8-.2-.8,0-1.2.4-1.2,1.3v.5h-.6v.8h.6v2.7h1v-2.7h1v-.8h-1v-.4c0-.3.2-.5.5-.5ZM150.6,762.9c.1,0,.3,0,.4,0v.7c-.2,0-.4,0-.7,0s-.5,0-.6-.1c-.1,0-.2-.3-.2-.5v-2.9h1v2.7ZM150.1,759.7c-.2,0-.3,0-.4-.2-.1-.1-.2-.3-.2-.4s0-.3.2-.4c.1-.1.3-.2.4-.2s.3,0,.4.2c.1.1.2.3.2.4s0,.3-.2.4c-.1.1-.3.2-.4.2ZM146,762.8h-.6v-3.3c.3,0,.5,0,.7,0,.5,0,.9.2,1.2.5.3.3.4.7.4,1.3s-.2,1-.5,1.3c-.3.3-.8.4-1.4.4ZM146.3,758.5c-.4,0-.7,0-1.1.2-.1-.1-.3-.2-.6-.2s-.5,0-.7,0v.8h.6v4.2h1.5c.9,0,1.6-.2,2.1-.7.5-.5.8-1.1.8-1.9s-.2-1.4-.7-1.9c-.4-.5-1.1-.7-1.8-.7ZM139.2,762.7c-.2,0-.4,0-.6-.2-.1-.1-.2-.4-.2-.6s0-.5.2-.7c.2-.2.4-.2.7-.2s.5,0,.7.2v.8c0,.2,0,.4-.2.6-.2.1-.4.2-.6.2ZM141.4,760.3c-.2,0-.3,0-.5,0s-.5,0-.6.3c-.3-.2-.7-.3-1-.3s-.9.2-1.2.5c-.3.3-.5.7-.5,1.3s.1.9.4,1.2c.3.3.6.4,1.1.4s.8-.1,1-.3v.2c0,.3,0,.5-.2.6-.2.1-.4.2-.7.2s-.8,0-1.1-.2v.8c.3.1.7.2,1.2.2s1.1-.1,1.4-.4c.3-.3.5-.7.5-1.3v-2.3c.1,0,.2,0,.4,0v-.7ZM136.7,762.9c.1,0,.3,0,.4,0v.7c-.2,0-.4,0-.7,0s-.5,0-.6-.1c-.1,0-.2-.3-.2-.5v-2.9h1v2.7ZM136.2,759.7c-.2,0-.3,0-.4-.2-.1-.1-.2-.3-.2-.4s0-.3.2-.4c.1-.1.3-.2.4-.2s.3,0,.4.2c.1.1.2.3.2.4s0,.3-.2.4c-.1.1-.3.2-.4.2ZM133.1,762.8h-1.2v-1.3h1.3c.3,0,.5,0,.6.2.1.1.2.3.2.5,0,.5-.3.7-.8.7ZM133.7,760.1c0,.4-.3.6-.9.6h-1v-1.3c.3,0,.6,0,.9,0,.6,0,1,.2,1,.7ZM134.1,760.9c.4-.2.5-.6.5-1s-.2-.8-.5-1c-.3-.2-.8-.4-1.3-.4s-.9,0-1.2.2c-.1-.1-.3-.2-.6-.2s-.5,0-.7,0v.8h.6v4.2h2.1c.6,0,1.1-.1,1.4-.4.3-.3.5-.6.5-1.1s-.3-1-.8-1.2ZM112.5,760.2c.5,0,.9,0,1.2.3.3.2.4.4.4.7h-.9c0-.2-.3-.3-.6-.3s-.6.1-.6.3,0,.2.2.3c.1,0,.2.1.4.1.2,0,.3,0,.5,0,.2,0,.4,0,.5.2.2,0,.3.2.4.3.1.1.2.3.2.6,0,.3-.1.6-.4.8-.3.2-.7.3-1.2.3s-1.1-.1-1.5-.4v-.8c.5.2,1,.4,1.5.4s.4,0,.5,0c0,0,.1-.1.1-.3s0-.2-.2-.3c-.1,0-.3-.1-.5-.1-.2,0-.4,0-.6-.1-.2,0-.4-.2-.5-.3-.1-.2-.2-.4-.2-.6s.1-.6.4-.8c.2-.2.6-.3,1.1-.3ZM109.1,760.9c.4,0,.6.1.6.4s0,.3-.3.4c-.2,0-.6.1-1.1.2,0-.3,0-.6.2-.7.2-.2.4-.2.6-.2ZM110.3,762.6c-.1,0-.3.2-.5.2-.2,0-.5.1-.7.1-.5,0-.8-.2-.9-.5.8,0,1.4-.1,1.7-.3.3-.2.5-.4.5-.8s-.1-.6-.4-.8c-.2-.2-.6-.3-1.1-.3s-1,.2-1.4.5c-.3.3-.5.8-.5,1.3s.1,1,.4,1.3c.3.3.7.5,1.3.5s.7,0,.9-.1c.3,0,.5-.2.6-.3l-.2-.8ZM106.4,762.9v-1.3c0-.5-.1-.8-.3-1.1-.2-.3-.5-.4-1-.4s-.8.2-1.1.5v-2.1h-1v5.1h1v-1.9c0-.2,0-.4.2-.6.1-.2.3-.2.6-.2.4,0,.7.3.7.8v1.2c0,.3,0,.5.2.6.1,0,.3.1.6.1s.4,0,.6,0v-.7c-.2,0-.3,0-.4,0ZM102.2,762.6l.2.8c-.4.3-.8.4-1.4.4s-1-.2-1.4-.5c-.3-.3-.5-.8-.5-1.4s.2-1,.5-1.3c.3-.3.7-.5,1.3-.5s.9.1,1.1.4c.2.3.4.6.4,1h-.9c0-.3-.2-.5-.6-.5s-.4,0-.6.2c-.1.2-.2.4-.2.7s0,.6.2.8c.2.2.4.3.7.3.4,0,.8-.1,1.2-.4ZM98.2,762.9v-2.7h-1v1.8c0,.3,0,.5-.2.7-.1.2-.3.3-.6.3s-.3,0-.4-.2c0-.1-.1-.3-.1-.6v-1.2c0-.3,0-.5-.2-.6-.1-.1-.3-.2-.6-.2s-.4,0-.5,0v.7c.1,0,.3,0,.4,0v1.3c0,.5,0,.9.3,1.1.2.2.5.3.9.3s1-.2,1.2-.6c.1.4.4.5.8.5s.3,0,.5,0v-.7c-.2,0-.3,0-.4,0ZM91.4,762c0,.3,0,.6.2.7.1.2.4.3.6.3s.5,0,.6-.3c.1-.2.2-.4.2-.7s0-.6-.2-.7c-.1-.2-.4-.3-.6-.3s-.5,0-.6.3c-.1.2-.2.4-.2.7ZM90.4,762c0-.6.2-1,.5-1.3.3-.3.8-.5,1.3-.5s1,.2,1.3.5c.3.3.5.8.5,1.3s-.2,1-.5,1.3c-.3.3-.8.5-1.3.5s-1-.2-1.3-.5c-.3-.3-.5-.8-.5-1.3ZM90.4,758.6h-2.7c-.4,0-.8,0-1.3,0v.8h1.5v4.2h1v-4.2h1.5v-.9ZM82.6,760.9c.4,0,.6.1.6.4s0,.3-.3.4c-.2,0-.6.1-1.1.2,0-.3,0-.6.2-.7.2-.2.4-.2.6-.2ZM83.9,762.6c-.1,0-.3.2-.5.2-.2,0-.5.1-.7.1-.5,0-.8-.2-.9-.5.8,0,1.4-.1,1.7-.3.3-.2.5-.4.5-.8s-.1-.6-.4-.8c-.2-.2-.6-.3-1.1-.3s-1,.2-1.4.5c-.3.3-.5.8-.5,1.3s.1,1,.4,1.3c.3.3.7.5,1.3.5s.7,0,.9-.1c.3,0,.5-.2.6-.3l-.2-.8ZM78.9,758.6h1v4.3c.1,0,.3,0,.5,0v.7c-.2,0-.4,0-.6,0s-.5,0-.7-.2c-.1-.1-.2-.3-.2-.6v-4.4ZM78.3,761v-.8h-1v-1h-1v1h-.6v.8h.6v1.7c0,.4,0,.7.2.9.2.2.4.2.8.2s.6,0,.9-.1v-.8c-.2,0-.4,0-.6,0s-.2,0-.3,0c0,0,0-.2,0-.3v-1.5h1ZM75.7,761v-.8h-1v-1h-1v1h-.6v.8h.6v1.7c0,.4,0,.7.2.9.2.2.4.2.8.2s.6,0,.9-.1v-.8c-.2,0-.4,0-.6,0s-.2,0-.3,0c0,0,0-.2,0-.3v-1.5h1ZM72.6,762.9c.1,0,.3,0,.4,0v.7c-.2,0-.4,0-.7,0s-.5,0-.6-.1c-.1,0-.2-.3-.2-.5v-2.9h1v2.7ZM72.1,759.7c-.2,0-.3,0-.4-.2-.1-.1-.2-.3-.2-.4s0-.3.2-.4c.1-.1.3-.2.4-.2s.3,0,.4.2c.1.1.2.3.2.4s0,.3-.2.4c-.1.1-.3.2-.4.2ZM68.7,762.8v-4.2h-1v5.1h3.4v-.9h-2.4Z"/>
  <path class="st0" d="M118.7,758.8c.7-.7,1.8-.7,2.5,0l3.4,3.4-2.5,2.5-3.4-3.4c-.7-.7-.7-1.8,0-2.5"/>
  <path class="st0" d="M125.5,758.8c-.7-.7-1.8-.7-2.5,0l-3.4,3.4,2.5,2.5,3.4-3.4c.7-.7.7-1.8,0-2.5"/>
  <path class="st1" d="M117.2,737.9c0,4.3-3.2,7.9-7.8,7.9s-7.9-3.6-7.9-8h0c0-4.4,3.2-8,7.8-8s7.9,3.6,7.9,8h0ZM124.1,737.8h0c0-8-6.1-14.4-14.7-14.4s-14.8,6.5-14.8,14.4h0c0,8,6.1,14.4,14.7,14.4s14.8-6.5,14.8-14.4Z"/>
  <path class="st0" d="M137.2,723.1h0c1.9,0,3.5,1.6,3.5,3.5v22c0,1.9-1.6,3.5-3.5,3.5h0c-1.9,0-3.5-1.6-3.5-3.5v-22c0-1.9,1.6-3.5,3.5-3.5"/>
  <path class="st0" d="M161.5,737.5h0c0-1.9,1.6-3.5,3.5-3.5h12.4c1.9,0,3.5,1.6,3.5,3.5s-1.6,3.5-3.5,3.5h-12.4c-1.9,0-3.5-1.6-3.5-3.5"/>
  <path class="st0" d="M165,723.6h0c1.9,0,3.5,1.6,3.5,3.5v20.7c0,1.9-1.6,3.5-3.5,3.5s-3.5-1.6-3.5-3.5v-20.7c0-1.9,1.6-3.5,3.5-3.5"/>
  <path class="st0" d="M161.5,726.7h0c0-1.9,1.6-3.5,3.5-3.5h14.1c1.9,0,3.5,1.6,3.5,3.5s-1.6,3.5-3.5,3.5h-14.1c-1.9,0-3.5-1.6-3.5-3.5"/>
  <path class="st0" d="M161.5,748.6h0c0-1.9,1.6-3.5,3.5-3.5h14.1c1.9,0,3.5,1.6,3.5,3.5h0c0,1.9-1.6,3.5-3.5,3.5h-14.1c-1.9,0-3.5-1.6-3.5-3.5"/>
  <path class="st0" d="M89.6,723.6h0c1.9,0,3.5,1.6,3.5,3.5v21.5c0,1.9-1.6,3.5-3.5,3.5h0c-1.9,0-3.5-1.6-3.5-3.5v-21.5c0-1.9,1.6-3.5,3.5-3.5"/>
  <path class="st0" d="M71.5,723.6h0c1.9,0,3.5,1.6,3.5,3.5v21.5c0,1.9-1.6,3.5-3.5,3.5s-3.5-1.6-3.5-3.5v-21.5c0-1.9,1.6-3.5,3.5-3.5"/>
  <path class="st0" d="M70.4,736.8h0c0-1.9,1.6-3.5,3.5-3.5h12.6c1.9,0,3.5,1.6,3.5,3.5h0c0,1.9-1.6,3.5-3.5,3.5h-12.6c-1.9,0-3.5-1.6-3.5-3.5"/>
  <path class="st0" d="M155.1,723.1h0c1.9,0,3.5,1.6,3.5,3.5v22c0,1.9-1.6,3.5-3.5,3.5h0c-1.9,0-3.5-1.6-3.5-3.5v-22c0-1.9,1.6-3.5,3.5-3.5"/>
  <path class="st0" d="M156.9,724.3h0c1.5,1.2,1.7,3.4.5,4.9l-17.3,21.4c-1.2,1.5-3.4,1.7-4.9.5h0c-1.5-1.2-1.7-3.4-.5-4.9l17.3-21.4c1.2-1.5,3.4-1.7,4.9-.5"/>
  <path class="st0" d="M187.7,738h0c0-1.9,1.6-3.5,3.5-3.5h11.8c1.9,0,3.5,1.6,3.5,3.5h0c0,1.9-1.6,3.5-3.5,3.5h-11.8c-1.9,0-3.5-1.6-3.5-3.5"/>
  <path class="st0" d="M197.1,728.6h0c1.9,0,3.5,1.6,3.5,3.5v11.8c0,1.9-1.6,3.5-3.5,3.5h0c-1.9,0-3.5-1.6-3.5-3.5v-11.8c0-1.9,1.6-3.5,3.5-3.5"/>
  <path class="st0" d="M139.1,724.3h0c1.5,1.2,1.7,3.4.5,4.9l-17.4,21.5c-1.2,1.5-3.4,1.7-4.9.5h0c-1.5-1.2-1.7-3.4-.5-4.9l17.4-21.5c1.2-1.5,3.4-1.7,4.9-.5"/>
  <path class="st1" d="M117,737.9c0,4.2-3.1,7.7-7.6,7.7s-7.7-3.5-7.7-7.7h0c0-4.3,3.1-7.7,7.6-7.7s7.7,3.5,7.7,7.7h0ZM123.7,737.8h0c0-7.8-6-14-14.3-14s-14.4,6.3-14.4,14h0c0,7.8,6,14,14.3,14s14.4-6.3,14.4-14Z"/>
  <path class="st1" d="M21.6,134.6h46.4v-12.4h-32.6v-43.3h25.8v-12.4h-25.8V23.3h32.6v-12.4H21.6v123.6ZM7.9,148.3V17.8l10.3-10.3h53.2v19.2l-10.3,10.3h-22.3v26.1h25.8v19.2l-10.3,10.3h-15.5v26.1h32.6v19.2l-10.3,10.3H7.9Z"/>
  <path class="st1" d="M91.5,134.6h23.2l17.5-123.6h-13.9l-14.3,109.9h-1.7l-14.2-109.9h-13.7l17.1,123.6ZM78.3,148.3L60.2,17.8l10.2-10.3h20.5l7.9,64,6.6-53.6,10.1-10.4h20.4l-18.5,130.5-10.2,10.3h-29Z"/>
  <path class="st1" d="M144.4,134.6h46.4v-12.4h-32.6v-43.3h25.8v-12.4h-25.8V23.3h32.6v-12.4h-46.4v123.6ZM130.7,148.3V17.8l10.3-10.3h53.2v19.2l-10.3,10.3h-22.3v26.1h25.8v19.2l-10.3,10.3h-15.5v26.1h32.6v19.2l-10.3,10.3h-53.2Z"/>
  <path class="st1" d="M229.3,70.7v-25.9c0-3.8-1.7-6.2-5.2-7.4v33.3h5.2ZM231.9,23.3c3.3,0,6,1,8.1,3.1,2.1,2.1,3.1,4.8,3.1,8.1v28.5c0,3.3-1,6-3.1,8.1-2.1,2.1-4.8,3.1-8.1,3.1h-11.2V23.3h11.2ZM244.6,134.6h14.4l-15.5-50.5c8.8-4,13.2-11.5,13.2-22.5v-25.8c0-7.4-2.3-13.4-6.9-18-4.6-4.6-10.6-6.9-18-6.9h-24.9v123.6h13.7v-48.1h9.3l14.6,48.1ZM247.5,85.9l16.1,52.7-10.3,9.7h-21.5l-7.7-25.1v14.8l-10.3,10.3h-20.6V17.8l10.3-10.3h28.3c8.5,0,15.3,2.6,20.5,7.8,5.2,5.2,7.8,12,7.8,20.5v25.8c0,11.2-4.2,19.3-12.7,24.2Z"/>
  <path class="st1" d="M289.4,134.6h13.7v-56.5l24.2-67.1h-14.5l-16.7,45.8-16.7-45.8h-14.6l24.4,67.5v56.1ZM275.7,148.3v-59.4l-25.9-71.1,10.2-10.3h21.8l11.2,30.9,7.3-20.6,10.2-10.4h21.7l-25.7,70.6v59.8l-10.3,10.3h-20.6Z"/>
  <path class="st1" d="M355.5,118.8h5.2V44.8c0-3.8-1.7-6.2-5.2-7.4v81.4ZM352.1,122.2V23.3h11.2c3.3,0,6,1,8.1,3.1,2.1,2.1,3.1,4.8,3.1,8.1v76.6c0,3.3-1,6-3.1,8.1-2.1,2.1-4.8,3.1-8.1,3.1h-11.2ZM338.4,134.6h24.9c7.4,0,13.4-2.3,18-6.9s6.9-10.6,6.9-18V35.8c0-7.4-2.3-13.4-6.9-18-4.6-4.6-10.6-6.9-18-6.9h-24.9v123.6ZM324.6,148.3V17.8l10.3-10.3h28.3c8.5,0,15.3,2.6,20.5,7.8,5.2,5.2,7.8,12,7.8,20.5v73.8c0,8.6-2.6,15.5-7.7,20.6l-10.3,10.3c-5.2,5.2-12,7.7-20.6,7.7h-28.3Z"/>
  <path class="st1" d="M418,89.4h.5l-.2-2.9-.4,2.9ZM414.4,92.8l8.8-69.5h1.7l8.9,69.5h-19.4ZM395.5,134.6h13.6l3.7-29.4h22.8l3.8,29.4h13.8l-17.5-123.6h-23l-17.2,123.6ZM381.1,148.3l18.1-130.5,10.2-10.3h29l18.5,130.5-10.3,10.3h-20.8l-3.5-29.4h-8.1l-2.4,19-10.2,10.3h-20.6Z"/>
  <path class="st1" d="M474,134.6h13.7v-56.5l24.2-67.1h-14.5l-16.7,45.8-16.7-45.8h-14.6l24.4,67.5v56.1ZM460.3,148.3v-59.4l-25.9-71.1,10.2-10.3h21.8l11.2,30.9,7.3-20.6,10.2-10.4h21.7l-25.7,70.6v59.8l-10.3,10.3h-20.6Z"/>
  <path class="st1" d="M523.3,134.6h13.7v-13.7h-13.7v13.7ZM509.6,148.3v-20.6l10.3-10.3h20.6v20.6l-10.3,10.3h-20.6ZM524.2,93.4h12l2.7-82.4h-17.5l2.7,82.4ZM510.6,107.1l-3.1-89.3,10.3-10.3h24.7l-3.1,89.3-10.3,10.3h-18.5Z"/>
  <path class="st1" d="M21.6,278.7h46.4v-12.4h-32.6v-43.3h25.8v-12.4h-25.8v-43.3h32.6v-12.4H21.6v123.6ZM7.9,292.5v-130.5l10.3-10.3h53.2v19.2l-10.3,10.3h-22.3v26.1h25.8v19.2l-10.3,10.3h-15.5v26.1h32.6v19.2l-10.3,10.3H7.9Z"/>
  <path class="st1" d="M91.5,278.7h23.2l17.5-123.6h-13.9l-14.3,109.9h-1.7l-14.2-109.9h-13.7l17.1,123.6ZM78.3,292.5l-18.1-130.5,10.2-10.3h20.5l7.9,64,6.6-53.6,10.1-10.4h20.4l-18.5,130.5-10.2,10.3h-29Z"/>
  <path class="st1" d="M144.4,278.7h46.4v-12.4h-32.6v-43.3h25.8v-12.4h-25.8v-43.3h32.6v-12.4h-46.4v123.6ZM130.7,292.5v-130.5l10.3-10.3h53.2v19.2l-10.3,10.3h-22.3v26.1h25.8v19.2l-10.3,10.3h-15.5v26.1h32.6v19.2l-10.3,10.3h-53.2Z"/>
  <path class="st1" d="M229.3,214.9v-25.9c0-3.8-1.7-6.2-5.2-7.4v33.3h5.2ZM231.9,167.5c3.3,0,6,1,8.1,3.1,2.1,2.1,3.1,4.8,3.1,8.1v28.5c0,3.3-1,6-3.1,8.1-2.1,2.1-4.8,3.1-8.1,3.1h-11.2v-50.8h11.2ZM244.6,278.7h14.4l-15.5-50.5c8.8-4,13.2-11.5,13.2-22.5v-25.8c0-7.4-2.3-13.4-6.9-18-4.6-4.6-10.6-6.9-18-6.9h-24.9v123.6h13.7v-48.1h9.3l14.6,48.1ZM247.5,230l16.1,52.7-10.3,9.7h-21.5l-7.7-25.1v14.8l-10.3,10.3h-20.6v-130.5l10.3-10.3h28.3c8.5,0,15.3,2.6,20.5,7.8,5.2,5.2,7.8,12,7.8,20.5v25.8c0,11.2-4.2,19.3-12.7,24.2Z"/>
  <path class="st1" d="M289.4,278.7h13.7v-56.5l24.2-67.1h-14.5l-16.7,45.8-16.7-45.8h-14.6l24.4,67.5v56.1ZM275.7,292.5v-59.4l-25.9-71.1,10.2-10.3h21.8l11.2,30.9,7.3-20.6,10.2-10.4h21.7l-25.7,70.6v59.8l-10.3,10.3h-20.6Z"/>
  <path class="st1" d="M355.5,262.9h5.2v-74c0-3.8-1.7-6.2-5.2-7.4v81.4ZM352.1,266.4v-98.9h11.2c3.3,0,6,1,8.1,3.1,2.1,2.1,3.1,4.8,3.1,8.1v76.6c0,3.3-1,6-3.1,8.1s-4.8,3.1-8.1,3.1h-11.2ZM338.4,278.7h24.9c7.4,0,13.4-2.3,18-6.9,4.6-4.6,6.9-10.6,6.9-18v-73.8c0-7.4-2.3-13.4-6.9-18-4.6-4.6-10.6-6.9-18-6.9h-24.9v123.6ZM324.6,292.5v-130.5l10.3-10.3h28.3c8.5,0,15.3,2.6,20.5,7.8,5.2,5.2,7.8,12,7.8,20.5v73.8c0,8.6-2.6,15.5-7.7,20.6l-10.3,10.3c-5.2,5.2-12,7.7-20.6,7.7h-28.3Z"/>
  <path class="st1" d="M418,233.6h.5l-.2-2.9-.4,2.9ZM414.4,237l8.8-69.5h1.7l8.9,69.5h-19.4ZM395.5,278.7h13.6l3.7-29.4h22.8l3.8,29.4h13.8l-17.5-123.6h-23l-17.2,123.6ZM381.1,292.5l18.1-130.5,10.2-10.3h29l18.5,130.5-10.3,10.3h-20.8l-3.5-29.4h-8.1l-2.4,19-10.2,10.3h-20.6Z"/>
  <path class="st1" d="M474,278.7h13.7v-56.5l24.2-67.1h-14.5l-16.7,45.8-16.7-45.8h-14.6l24.4,67.5v56.1ZM460.3,292.5v-59.4l-25.9-71.1,10.2-10.3h21.8l11.2,30.9,7.3-20.6,10.2-10.4h21.7l-25.7,70.6v59.8l-10.3,10.3h-20.6Z"/>
  <path class="st1" d="M523.3,278.7h13.7v-13.7h-13.7v13.7ZM509.6,292.5v-20.6l10.3-10.3h20.6v20.6l-10.3,10.3h-20.6ZM524.2,237.5h12l2.7-82.4h-17.5l2.7,82.4ZM510.6,251.3l-3.1-89.3,10.3-10.3h24.7l-3.1,89.3-10.3,10.3h-18.5Z"/>
</svg>