<?xml version="1.0" encoding="UTF-8"?>
<svg id="Layer_1" xmlns="http://www.w3.org/2000/svg" version="1.1" viewBox="0 0 545.4 814.5">
  <!-- Generator: Adobe Illustrator 30.4.0, SVG Export Plug-In . SVG Version: 2.1.3 Build 135)  -->
  <defs>
    <style>
      .st0 {
        fill: #fff;
      }

      .st1 {
        fill: #ed3438;
      }

      .st1, .st2 {
        fill-rule: evenodd;
      }

      .st3, .st2 {
        fill: #4871aa;
      }
    </style>
  </defs>
  <path class="st3" d="M496.7,154.8h28.7v-27.3h-28.7v27.3ZM497.6,114.6h26.9l2.9-89.8h-32.7l2.9,89.8ZM394.7,89c0-21.3,15.6-37.3,35.1-37.3s35.1,16,35.1,37.3-15.6,38.9-35.1,38.9-35.1-16.7-35.1-38.9ZM361.8,89c0,38.2,28.7,68,68,68s68-29.8,68-68-28.7-66.3-68-66.3-68,29.1-68,66.3ZM304.3,127.5v-26.9h19.3c9.3,0,13.6,6,13.6,13.3s-4.5,13.6-13.8,13.6h-19.1ZM304.3,75.1v-23.1h15.8c8.5,0,12,5.1,12,11.1s-3.5,12-11.5,12h-16.4ZM272.5,154.8h47.8c25.8,0,49.4-10.4,49.4-38.7s-5.5-24.7-20.4-29.3v-.4c9.8-5.6,15.1-16.7,15.1-27.6,0-22.4-18.2-34-44.2-34h-47.8v130ZM137.6,89c0,38.2,28.7,68,68,68s68-29.8,68-68-28.7-66.3-68-66.3-68,29.1-68,66.3ZM27.7,154.8h31.8v-50.9h47.3v50.9h31.8V24.8h-31.8v52h-47.3V24.8h-31.8v130Z"/>
  <path class="st0" d="M223,100.8c0,9,5.7,12.1,11.2,12.1s11.2-3.2,11.2-12.1v-30.4h-12.5v2.4h10v28.1c0,7.2-4.4,9.6-8.7,9.6s-8.5-4.5-8.5-9.6v-1.4h-2.6v1.3ZM201.2,95.4l6.4-17c.7-1.8,1.6-5,1.6-5h.1s.9,3.2,1.6,5l6.3,17h-16ZM192.2,112.2h2.7l5.4-14.5h17.7l5.4,14.5h2.7l-15.7-41.8h-2.7l-15.7,41.8ZM159.5,112.2h2.6v-19.8h26.5v19.8h2.6v-41.8h-2.6v19.7h-26.5v-19.7h-2.6v41.8Z"/>
  <path class="st3" d="M164,756.4c-.2,0-.3,0-.4-.2-.1-.1-.2-.3-.2-.4s0-.3.2-.4c.1-.1.3-.2.4-.2s.3,0,.4.2c.1.1.2.3.2.4s0,.3-.2.4c-.1.1-.3.2-.4.2M161,752.8c.5,0,.9,0,1.2.3.3.2.4.4.4.7h-.9c0-.2-.3-.3-.6-.3s-.6.1-.6.3,0,.2.2.3c.1,0,.2.1.4.1.2,0,.3,0,.5,0,.2,0,.4,0,.5.2.2,0,.3.2.4.3.1.1.2.3.2.6,0,.3-.1.6-.4.8-.3.2-.7.3-1.2.3s-1.1-.1-1.5-.4v-.8c.5.2,1,.4,1.5.4s.4,0,.5,0c0,0,.1-.1.1-.3s0-.2-.2-.3c-.1,0-.3-.1-.5-.1-.2,0-.4,0-.6-.1-.2,0-.4-.2-.5-.3-.1-.2-.2-.4-.2-.6s.1-.6.4-.8c.2-.2.6-.3,1.1-.3ZM157.5,753.6c.4,0,.6.1.6.4s0,.3-.3.4c-.2,0-.6.1-1.1.2,0-.3,0-.6.2-.7.2-.2.4-.2.6-.2ZM158.7,755.3c-.1,0-.3.2-.5.2-.2,0-.5.1-.7.1-.5,0-.8-.2-.9-.5.8,0,1.4-.1,1.7-.3.3-.2.5-.4.5-.8s-.1-.6-.4-.8c-.2-.2-.6-.3-1.1-.3s-1,.2-1.4.5c-.3.3-.5.8-.5,1.3s.1,1,.4,1.3c.3.3.7.5,1.3.5s.7,0,.9-.1c.3,0,.5-.2.6-.3l-.2-.8ZM154.9,755.3l.2.8c-.4.3-.8.4-1.4.4s-1-.2-1.4-.5c-.3-.3-.5-.8-.5-1.4s.2-1,.5-1.3c.3-.3.7-.5,1.3-.5s.9.1,1.1.4c.2.3.4.6.4,1h-.9c0-.3-.2-.5-.6-.5s-.4,0-.6.2c-.1.2-.2.4-.2.7s0,.6.2.8c.2.2.4.3.7.3.4,0,.8-.1,1.2-.4ZM151,755.6v-1.3c0-.5-.1-.8-.3-1.1-.2-.3-.5-.4-1-.4s-.9.2-1.2.5c-.1-.4-.4-.5-.8-.5s-.3,0-.5,0v.7c.1,0,.3,0,.4,0v2.7h1v-1.9c0-.2,0-.4.2-.6.1-.2.3-.2.6-.2.4,0,.7.3.7.8v1.2c0,.3,0,.5.2.6.1,0,.3.1.6.1s.4,0,.6,0v-.7c-.2,0-.3,0-.4,0ZM145.3,753.6c.4,0,.6.1.6.4s0,.3-.3.4c-.2,0-.6.1-1.1.2,0-.3,0-.6.2-.7.2-.2.4-.2.6-.2ZM146.6,755.3c-.1,0-.3.2-.5.2-.2,0-.5.1-.7.1-.5,0-.8-.2-.9-.5.8,0,1.4-.1,1.7-.3.3-.2.5-.4.5-.8s-.1-.6-.4-.8c-.2-.2-.6-.3-1.1-.3s-1,.2-1.4.5c-.3.3-.5.8-.5,1.3s.1,1,.4,1.3c.3.3.7.5,1.3.5s.7,0,.9-.1c.3,0,.5-.2.6-.3l-.2-.8ZM142.9,752.8c-.3,0-.6.2-.8.6-.1-.4-.4-.6-.7-.6s-.3,0-.5,0v.7c.2,0,.3,0,.4,0v2.7h1v-1.6c0-.3,0-.6.2-.7.1-.2.3-.3.5-.3s.2,0,.3,0v-.9s-.2,0-.3,0ZM138.9,753.6c.4,0,.6.1.6.4s0,.3-.3.4c-.2,0-.6.1-1.1.2,0-.3,0-.6.2-.7.2-.2.4-.2.6-.2ZM140.1,755.3c-.1,0-.3.2-.5.2-.2,0-.5.1-.7.1-.5,0-.8-.2-.9-.5.8,0,1.4-.1,1.7-.3.3-.2.5-.4.5-.8s-.1-.6-.4-.8c-.2-.2-.6-.3-1.1-.3s-1,.2-1.4.5c-.3.3-.5.8-.5,1.3s.1,1,.4,1.3c.3.3.7.5,1.3.5s.7,0,.9-.1c.3,0,.5-.2.6-.3l-.2-.8ZM136.2,752c.1,0,.3,0,.5.1v-.8c-.2-.1-.5-.2-.8-.2-.8,0-1.2.4-1.2,1.3v.5h-.6v.8h.6v2.7h1v-2.7h1v-.8h-1v-.4c0-.3.2-.5.5-.5ZM133.7,752c.1,0,.3,0,.5.1v-.8c-.2-.1-.5-.2-.8-.2-.8,0-1.2.4-1.2,1.3v.5h-.6v.8h.6v2.7h1v-2.7h1v-.8h-1v-.4c0-.3.2-.5.5-.5ZM131.1,755.6c.1,0,.3,0,.4,0v.7c-.2,0-.4,0-.7,0s-.5,0-.6-.1c-.1,0-.2-.3-.2-.5v-2.9h1v2.7ZM130.6,752.4c-.2,0-.3,0-.4-.2-.1-.1-.2-.3-.2-.4s0-.3.2-.4c.1-.1.3-.2.4-.2s.3,0,.4.2c.1.1.2.3.2.4s0,.3-.2.4c-.1.1-.3.2-.4.2ZM126.4,755.5h-.6v-3.3c.3,0,.5,0,.7,0,.5,0,.9.2,1.2.5.3.3.4.7.4,1.3s-.2,1-.5,1.3-.8.4-1.4.4ZM126.7,751.2c-.4,0-.7,0-1.1.2-.1-.1-.3-.2-.6-.2s-.5,0-.7,0v.8h.6v4.2h1.5c.9,0,1.6-.2,2.1-.7.5-.5.8-1.1.8-1.9s-.2-1.4-.7-1.9c-.4-.5-1.1-.7-1.8-.7ZM119.7,755.4c-.2,0-.4,0-.6-.2-.1-.1-.2-.4-.2-.6s0-.5.2-.7c.2-.2.4-.2.7-.2s.5,0,.7.2v.8c0,.2,0,.4-.2.6-.2.1-.4.2-.6.2ZM121.9,752.9c-.2,0-.3,0-.5,0s-.5,0-.6.3c-.3-.2-.7-.3-1-.3s-.9.2-1.2.5c-.3.3-.5.7-.5,1.3s.1.9.4,1.2c.3.3.6.4,1.1.4s.8-.1,1-.3v.2c0,.3,0,.5-.2.6-.2.1-.4.2-.7.2s-.8,0-1.1-.2v.8c.3.1.7.2,1.2.2s1.1-.1,1.4-.4c.3-.3.5-.7.5-1.3v-2.3c.1,0,.2,0,.4,0v-.7ZM117.1,755.6c.1,0,.3,0,.4,0v.7c-.2,0-.4,0-.7,0s-.5,0-.6-.1c-.1,0-.2-.3-.2-.5v-2.9h1v2.7ZM116.6,752.4c-.2,0-.3,0-.4-.2-.1-.1-.2-.3-.2-.4s0-.3.2-.4c.1-.1.3-.2.4-.2s.3,0,.4.2c.1.1.2.3.2.4s0,.3-.2.4c-.1.1-.3.2-.4.2ZM113.5,755.5h-1.2v-1.3h1.3c.3,0,.5,0,.6.2.1.1.2.3.2.5,0,.5-.3.7-.8.7ZM114.1,752.8c0,.4-.3.6-.9.6h-1v-1.3c.3,0,.6,0,.9,0,.6,0,1,.2,1,.7ZM114.6,753.6c.4-.2.5-.6.5-1s-.2-.8-.5-1c-.3-.2-.8-.4-1.3-.4s-.9,0-1.2.2c-.1-.1-.3-.2-.6-.2s-.5,0-.7,0v.8h.6v4.2h2.1c.6,0,1.1-.1,1.4-.4.3-.3.5-.6.5-1.1s-.3-1-.8-1.2ZM93,752.8c.5,0,.9,0,1.2.3.3.2.4.4.4.7h-.9c0-.2-.3-.3-.6-.3s-.6.1-.6.3,0,.2.2.3c.1,0,.2.1.4.1.2,0,.3,0,.5,0s.4,0,.5.2c.2,0,.3.2.4.3.1.1.2.3.2.6,0,.3-.1.6-.4.8-.3.2-.7.3-1.2.3s-1.1-.1-1.5-.4v-.8c.5.2,1,.4,1.5.4s.4,0,.5,0c0,0,.1-.1.1-.3s0-.2-.2-.3c-.1,0-.3-.1-.5-.1-.2,0-.4,0-.6-.1-.2,0-.4-.2-.5-.3-.1-.2-.2-.4-.2-.6s.1-.6.4-.8c.2-.2.6-.3,1.1-.3ZM89.5,753.6c.4,0,.6.1.6.4s0,.3-.3.4c-.2,0-.6.1-1.1.2,0-.3,0-.6.2-.7.2-.2.4-.2.6-.2ZM90.7,755.3c-.1,0-.3.2-.5.2-.2,0-.5.1-.7.1-.5,0-.8-.2-.9-.5.8,0,1.4-.1,1.7-.3.3-.2.5-.4.5-.8s-.1-.6-.4-.8c-.2-.2-.6-.3-1.1-.3s-1,.2-1.4.5c-.3.3-.5.8-.5,1.3s.1,1,.4,1.3c.3.3.7.5,1.3.5s.7,0,.9-.1c.3,0,.5-.2.6-.3l-.2-.8ZM86.8,755.6v-1.3c0-.5-.1-.8-.3-1.1-.2-.3-.5-.4-1-.4s-.8.2-1.1.5v-2.1h-1v5.1h1v-1.9c0-.2,0-.4.2-.6.1-.2.3-.2.6-.2.4,0,.7.3.7.8v1.2c0,.3,0,.5.2.6.1,0,.3.1.6.1s.4,0,.6,0v-.7c-.2,0-.3,0-.4,0ZM82.6,755.3l.2.8c-.4.3-.8.4-1.4.4s-1-.2-1.4-.5c-.3-.3-.5-.8-.5-1.4s.2-1,.5-1.3c.3-.3.7-.5,1.3-.5s.9.1,1.1.4c.2.3.4.6.4,1h-.9c0-.3-.2-.5-.6-.5s-.4,0-.6.2c-.1.2-.2.4-.2.7s0,.6.2.8c.2.2.4.3.7.3.4,0,.8-.1,1.2-.4ZM78.7,755.6v-2.7h-1v1.8c0,.3,0,.5-.2.7-.1.2-.3.3-.6.3s-.3,0-.4-.2c0-.1-.1-.3-.1-.6v-1.2c0-.3,0-.5-.2-.6-.1-.1-.3-.2-.6-.2s-.4,0-.5,0v.7c.1,0,.3,0,.4,0v1.3c0,.5,0,.9.3,1.1.2.2.5.3.9.3s1-.2,1.2-.6c.1.4.4.5.8.5s.3,0,.5,0v-.7c-.2,0-.3,0-.4,0ZM71.8,754.6c0,.3,0,.6.2.7.1.2.4.3.6.3s.5,0,.6-.3c.1-.2.2-.4.2-.7s0-.6-.2-.7c-.1-.2-.4-.3-.6-.3s-.5,0-.6.3c-.1.2-.2.4-.2.7ZM70.8,754.6c0-.6.2-1,.5-1.3.3-.3.8-.5,1.3-.5s1,.2,1.3.5c.3.3.5.8.5,1.3s-.2,1-.5,1.3c-.3.3-.8.5-1.3.5s-1-.2-1.3-.5c-.3-.3-.5-.8-.5-1.3ZM70.8,751.2h-2.7c-.4,0-.8,0-1.3,0v.8h1.5v4.2h1v-4.2h1.5v-.9ZM63,753.6c.4,0,.6.1.6.4s0,.3-.3.4c-.2,0-.6.1-1.1.2,0-.3,0-.6.2-.7.2-.2.4-.2.6-.2ZM64.3,755.3c-.1,0-.3.2-.5.2-.2,0-.5.1-.7.1-.5,0-.8-.2-.9-.5.8,0,1.4-.1,1.7-.3.3-.2.5-.4.5-.8s-.1-.6-.4-.8c-.2-.2-.6-.3-1.1-.3s-1,.2-1.4.5c-.3.3-.5.8-.5,1.3s.1,1,.4,1.3c.3.3.7.5,1.3.5s.7,0,.9-.1c.3,0,.5-.2.6-.3l-.2-.8ZM59.3,751.2h1v4.3c.1,0,.3,0,.5,0v.7c-.2,0-.4,0-.6,0s-.5,0-.7-.2c-.1-.1-.2-.3-.2-.6v-4.4ZM58.8,753.7v-.8h-1v-1h-1v1h-.6v.8h.6v1.7c0,.4,0,.7.2.9.2.2.4.2.8.2s.6,0,.9-.1v-.8c-.2,0-.4,0-.6,0s-.2,0-.3,0c0,0,0-.2,0-.3v-1.5h1ZM56.2,753.7v-.8h-1v-1h-1v1h-.6v.8h.6v1.7c0,.4,0,.7.2.9.2.2.4.2.8.2s.6,0,.9-.1v-.8c-.2,0-.4,0-.6,0s-.2,0-.3,0c0,0,0-.2,0-.3v-1.5h1ZM53,755.6c.1,0,.3,0,.4,0v.7c-.2,0-.4,0-.7,0s-.5,0-.6-.1c-.1,0-.2-.3-.2-.5v-2.9h1v2.7ZM52.5,752.4c-.2,0-.3,0-.4-.2-.1-.1-.2-.3-.2-.4s0-.3.2-.4c.1-.1.3-.2.4-.2s.3,0,.4.2c.1.1.2.3.2.4s0,.3-.2.4c-.1.1-.3.2-.4.2ZM49.2,755.5v-4.2h-1v5.1h3.4v-.9h-2.4Z"/>
  <path class="st2" d="M99.1,751.4c.7-.7,1.8-.7,2.5,0l3.4,3.4-2.5,2.5-3.4-3.4c-.7-.7-.7-1.8,0-2.5"/>
  <path class="st2" d="M105.9,751.4c-.7-.7-1.8-.7-2.5,0l-3.4,3.4,2.5,2.5,3.4-3.4c.7-.7.7-1.8,0-2.5"/>
  <path class="st3" d="M97.7,730.5c0,4.3-3.2,7.9-7.8,7.9s-7.9-3.6-7.9-7.9h0c0-4.4,3.2-8,7.8-8s7.9,3.6,7.9,8h0ZM104.6,730.5h0c0-8-6.1-14.4-14.7-14.4s-14.8,6.5-14.8,14.4h0c0,8,6.1,14.4,14.7,14.4s14.8-6.5,14.8-14.4Z"/>
  <path class="st2" d="M117.7,715.7h0c1.9,0,3.5,1.6,3.5,3.5v22c0,1.9-1.6,3.5-3.5,3.5h0c-1.9,0-3.5-1.6-3.5-3.5v-22c0-1.9,1.6-3.5,3.5-3.5"/>
  <path class="st2" d="M141.9,730.1h0c0-1.9,1.6-3.5,3.5-3.5h12.4c1.9,0,3.5,1.6,3.5,3.5s-1.6,3.5-3.5,3.5h-12.4c-1.9,0-3.5-1.6-3.5-3.5"/>
  <path class="st2" d="M145.4,716.3h0c1.9,0,3.5,1.6,3.5,3.5v20.7c0,1.9-1.6,3.5-3.5,3.5s-3.5-1.6-3.5-3.5v-20.7c0-1.9,1.6-3.5,3.5-3.5"/>
  <path class="st2" d="M141.9,719.3h0c0-1.9,1.6-3.5,3.5-3.5h14.1c1.9,0,3.5,1.6,3.5,3.5s-1.6,3.5-3.5,3.5h-14.1c-1.9,0-3.5-1.6-3.5-3.5"/>
  <path class="st2" d="M141.9,741.2h0c0-1.9,1.6-3.5,3.5-3.5h14.1c1.9,0,3.5,1.6,3.5,3.5h0c0,1.9-1.6,3.5-3.5,3.5h-14.1c-1.9,0-3.5-1.6-3.5-3.5"/>
  <path class="st2" d="M70.1,716.3h0c1.9,0,3.5,1.6,3.5,3.5v21.5c0,1.9-1.6,3.5-3.5,3.5h0c-1.9,0-3.5-1.6-3.5-3.5v-21.5c0-1.9,1.6-3.5,3.5-3.5"/>
  <path class="st2" d="M51.9,716.3h0c1.9,0,3.5,1.6,3.5,3.5v21.5c0,1.9-1.6,3.5-3.5,3.5s-3.5-1.6-3.5-3.5v-21.5c0-1.9,1.6-3.5,3.5-3.5"/>
  <path class="st2" d="M50.8,729.5h0c0-1.9,1.6-3.5,3.5-3.5h12.6c1.9,0,3.5,1.6,3.5,3.5h0c0,1.9-1.6,3.5-3.5,3.5h-12.6c-1.9,0-3.5-1.6-3.5-3.5"/>
  <path class="st2" d="M135.5,715.7h0c1.9,0,3.5,1.6,3.5,3.5v22c0,1.9-1.6,3.5-3.5,3.5h0c-1.9,0-3.5-1.6-3.5-3.5v-22c0-1.9,1.6-3.5,3.5-3.5"/>
  <path class="st2" d="M137.3,716.9h0c1.5,1.2,1.7,3.4.5,4.9l-17.3,21.4c-1.2,1.5-3.4,1.7-4.9.5h0c-1.5-1.2-1.7-3.4-.5-4.9l17.3-21.4c1.2-1.5,3.4-1.7,4.9-.5"/>
  <path class="st2" d="M168.2,730.6h0c0-1.9,1.6-3.5,3.5-3.5h11.8c1.9,0,3.5,1.6,3.5,3.5h0c0,1.9-1.6,3.5-3.5,3.5h-11.8c-1.9,0-3.5-1.6-3.5-3.5"/>
  <path class="st2" d="M177.5,721.3h0c1.9,0,3.5,1.6,3.5,3.5v11.8c0,1.9-1.6,3.5-3.5,3.5h0c-1.9,0-3.5-1.6-3.5-3.5v-11.8c0-1.9,1.6-3.5,3.5-3.5"/>
  <path class="st2" d="M119.5,716.9h0c1.5,1.2,1.7,3.4.5,4.9l-17.4,21.5c-1.2,1.5-3.4,1.7-4.9.5h0c-1.5-1.2-1.7-3.4-.5-4.9l17.4-21.5c1.2-1.5,3.4-1.7,4.9-.5"/>
  <path class="st3" d="M97.5,730.5c0,4.2-3.1,7.7-7.6,7.7s-7.7-3.5-7.7-7.7h0c0-4.3,3.1-7.7,7.6-7.7s7.7,3.5,7.7,7.7h0ZM104.2,730.5h0c0-7.8-6-14-14.3-14s-14.4,6.3-14.4,14h0c0,7.8,6,14,14.3,14s14.4-6.3,14.4-14Z"/>
  <path class="st1" d="M218.2,238.6h-119c-32.6,0-59.2,26.6-59.2,59.2h0c0,32.6,26.7,59.2,59.2,59.2h176.5c31,0,56.6-24.1,59-54.6h.2v-4.6h0v-59.2h-116.7Z"/>
</svg>