<?xml version="1.0" encoding="UTF-8"?>
<svg id="Layer_1" xmlns="http://www.w3.org/2000/svg" version="1.1" viewBox="0 0 545.4 814.5">
  <!-- Generator: Adobe Illustrator 30.4.0, SVG Export Plug-In . SVG Version: 2.1.3 Build 135)  -->
  <defs>
    <style>
      .st0 {
        fill: #ed3438;
      }

      .st0, .st1, .st2 {
        fill-rule: evenodd;
      }

      .st1, .st3 {
        fill: #201e1e;
      }

      .st4 {
        fill: #febe10;
      }

      .st2, .st5 {
        fill: #4c4c4e;
      }
    </style>
  </defs>
  <rect class="st4" width="545.4" height="814.5"/>
  <path class="st0" d="M207.1,238.6h-119c-32.6,0-59.2,26.6-59.2,59.2h0c0,32.6,26.7,59.2,59.2,59.2h176.5c31,0,56.6-24.1,59-54.6h.2v-4.6h0v-59.2h-116.7Z"/>
  <path class="st1" d="M114.7,154.7c-12,0-21.8-9.8-21.8-21.8v-15.7h43.2s0-43.7,0-43.7h.4v59.4c0,12-9.8,21.8-21.8,21.8"/>
  <path class="st1" d="M114.5,36c12,0,21.8,9.8,21.8,21.8v59.4h-43.7v-59.4c0-12,9.8-21.8,21.8-21.8"/>
  <path class="st1" d="M55.2,95.8c0-12,9.8-21.8,21.8-21.8h15.7v43.2s43.7,0,43.7,0v.4h-59.4c-12,0-21.8-9.8-21.8-21.8"/>
  <path class="st1" d="M173.9,95.7c0-12-9.8-21.8-21.8-21.8h-18.8v43.2s-40.6,0-40.6,0v.4h59.4c12,0,21.8-9.8,21.8-21.8"/>
  <polygon class="st3" points="152 192.5 171.1 192.5 171.1 151.7 187.9 151.7 187.9 192.5 207 192.5 207 135.7 152 135.7 152 192.5"/>
  <path class="st3" d="M229.3,164.2c0-8.6,6-14,12.9-14s12.9,5.4,12.9,14-6,13.7-12.9,13.7-12.9-5.2-12.9-13.7M210,164.2c0,17.7,14.3,29.5,32.2,29.5s32.2-11.8,32.2-29.5-14.3-29.9-32.3-29.9-32.1,12-32.1,29.9Z"/>
  <polygon class="st3" points="277.4 192.5 296.5 192.5 296.5 151.7 313.3 151.7 313.3 192.5 332.4 192.5 332.4 135.7 277.4 135.7 277.4 192.5"/>
  <path class="st3" d="M339.2,197.6l-6.1,14s5.7,4,13.2,4,19-4.4,23.7-17.1l23.3-62.8h-20.8l-7.2,26.5c-.8,3.1-1.9,8.5-1.9,8.5h-.2s-1.1-5.7-2.1-8.8l-8.4-26.1h-21.6l24.1,55.7-1.1,2.6c-2,4.9-6.1,5.7-9.1,5.7s-5.8-2.1-5.8-2.1"/>
  <path class="st3" d="M388.7,164c0,15.7,11.4,29.8,31.6,29.8s18.7-3.6,24.4-9.4l-6.9-13.3c-4.1,3.5-10,6.8-15.5,6.8-9.6,0-14.2-7.4-14.2-14.1s4.5-13.6,13.6-13.6,10,2.3,13.3,5.5l8-12.8c-5.6-6.1-14.7-8.6-22.6-8.6-20.4,0-31.6,14.4-31.6,29.7"/>
  <polygon class="st3" points="458.6 192.5 477.7 192.5 477.7 151.7 495 151.7 495 135.7 441.4 135.7 441.4 151.7 458.6 151.7 458.6 192.5"/>
  <path class="st5" d="M169.5,756.4c-.2,0-.3,0-.4-.2-.1-.1-.2-.3-.2-.4s0-.3.2-.4c.1-.1.3-.2.4-.2s.3,0,.4.2c.1.1.2.3.2.4s0,.3-.2.4c-.1.1-.3.2-.4.2M166.5,752.8c.5,0,.9,0,1.2.3.3.2.4.4.4.7h-.9c0-.2-.3-.3-.6-.3s-.6.1-.6.3,0,.2.2.3c.1,0,.2.1.4.1.2,0,.3,0,.5,0,.2,0,.4,0,.5.2.2,0,.3.2.4.3.1.1.2.3.2.6,0,.3-.1.6-.4.8s-.7.3-1.2.3-1.1-.1-1.5-.4v-.8c.5.2,1,.4,1.5.4s.4,0,.5,0c0,0,.1-.1.1-.3s0-.2-.2-.3c-.1,0-.3-.1-.5-.1-.2,0-.4,0-.6-.1-.2,0-.4-.2-.5-.3-.1-.2-.2-.4-.2-.6s.1-.6.4-.8c.2-.2.6-.3,1.1-.3ZM163,753.6c.4,0,.6.1.6.4s0,.3-.3.4c-.2,0-.6.1-1.1.2,0-.3,0-.6.2-.7.2-.2.4-.2.6-.2ZM164.3,755.3c-.1,0-.3.2-.5.2-.2,0-.5.1-.7.1-.5,0-.8-.2-.9-.5.8,0,1.4-.1,1.7-.3.3-.2.5-.4.5-.8s-.1-.6-.4-.8c-.2-.2-.6-.3-1.1-.3s-1,.2-1.4.5c-.3.3-.5.8-.5,1.3s.1,1,.4,1.3c.3.3.7.5,1.3.5s.7,0,.9-.1c.3,0,.5-.2.6-.3l-.2-.8ZM160.5,755.3l.2.8c-.4.3-.8.4-1.4.4s-1-.2-1.4-.5c-.3-.3-.5-.8-.5-1.4s.2-1,.5-1.3c.3-.3.7-.5,1.3-.5s.9.1,1.1.4c.2.3.4.6.4,1h-.9c0-.3-.2-.5-.6-.5s-.4,0-.6.2c-.1.2-.2.4-.2.7s0,.6.2.8c.2.2.4.3.7.3.4,0,.8-.1,1.2-.4ZM156.5,755.6v-1.3c0-.5-.1-.8-.3-1.1-.2-.3-.5-.4-1-.4s-.9.2-1.2.5c-.1-.4-.4-.5-.8-.5s-.3,0-.5,0v.7c.1,0,.3,0,.4,0v2.7h1v-1.9c0-.2,0-.4.2-.6.1-.2.3-.2.6-.2.4,0,.7.3.7.8v1.2c0,.3,0,.5.2.6.1,0,.3.1.6.1s.4,0,.6,0v-.7c-.2,0-.3,0-.4,0ZM150.9,753.6c.4,0,.6.1.6.4s0,.3-.3.4c-.2,0-.6.1-1.1.2,0-.3,0-.6.2-.7.2-.2.4-.2.6-.2ZM152.1,755.3c-.1,0-.3.2-.5.2-.2,0-.5.1-.7.1-.5,0-.8-.2-.9-.5.8,0,1.4-.1,1.7-.3.3-.2.5-.4.5-.8s-.1-.6-.4-.8c-.2-.2-.6-.3-1.1-.3s-1,.2-1.4.5c-.3.3-.5.8-.5,1.3s.1,1,.4,1.3c.3.3.7.5,1.3.5s.7,0,.9-.1c.3,0,.5-.2.6-.3l-.2-.8ZM148.4,752.8c-.3,0-.6.2-.8.6-.1-.4-.4-.6-.7-.6s-.3,0-.5,0v.7c.2,0,.3,0,.4,0v2.7h1v-1.6c0-.3,0-.6.2-.7.1-.2.3-.3.5-.3s.2,0,.3,0v-.9s-.2,0-.3,0ZM144.4,753.6c.4,0,.6.1.6.4s0,.3-.3.4c-.2,0-.6.1-1.1.2,0-.3,0-.6.2-.7.2-.2.4-.2.6-.2ZM145.6,755.3c-.1,0-.3.2-.5.2-.2,0-.5.1-.7.1-.5,0-.8-.2-.9-.5.8,0,1.4-.1,1.7-.3.3-.2.5-.4.5-.8s-.1-.6-.4-.8c-.2-.2-.6-.3-1.1-.3s-1,.2-1.4.5c-.3.3-.5.8-.5,1.3s.1,1,.4,1.3c.3.3.7.5,1.3.5s.7,0,.9-.1c.3,0,.5-.2.6-.3l-.2-.8ZM141.8,752c.1,0,.3,0,.5.1v-.8c-.2-.1-.5-.2-.8-.2-.8,0-1.2.4-1.2,1.3v.5h-.6v.8h.6v2.7h1v-2.7h1v-.8h-1v-.4c0-.3.2-.5.5-.5ZM139.2,752c.1,0,.3,0,.5.1v-.8c-.2-.1-.5-.2-.8-.2-.8,0-1.2.4-1.2,1.3v.5h-.6v.8h.6v2.7h1v-2.7h1v-.8h-1v-.4c0-.3.2-.5.5-.5ZM136.6,755.6c.1,0,.3,0,.4,0v.7c-.2,0-.4,0-.7,0s-.5,0-.6-.1c-.1,0-.2-.3-.2-.5v-2.9h1v2.7ZM136.1,752.4c-.2,0-.3,0-.4-.2-.1-.1-.2-.3-.2-.4s0-.3.2-.4c.1-.1.3-.2.4-.2s.3,0,.4.2c.1.1.2.3.2.4s0,.3-.2.4c-.1.1-.3.2-.4.2ZM131.9,755.5h-.6v-3.3c.3,0,.5,0,.7,0,.5,0,.9.2,1.2.5.3.3.4.7.4,1.3s-.2,1-.5,1.3c-.3.3-.8.4-1.4.4ZM132.2,751.2c-.4,0-.7,0-1.1.2-.1-.1-.3-.2-.6-.2s-.5,0-.7,0v.8h.6v4.2h1.5c.9,0,1.6-.2,2.1-.7.5-.5.8-1.1.8-1.9s-.2-1.4-.7-1.9c-.4-.5-1.1-.7-1.8-.7ZM125.2,755.4c-.2,0-.4,0-.6-.2-.1-.1-.2-.4-.2-.6s0-.5.2-.7c.2-.2.4-.2.7-.2s.5,0,.7.2v.8c0,.2,0,.4-.2.6-.2.1-.4.2-.6.2ZM127.4,752.9c-.2,0-.3,0-.5,0s-.5,0-.6.3c-.3-.2-.7-.3-1-.3s-.9.2-1.2.5c-.3.3-.5.7-.5,1.3s.1.9.4,1.2c.3.3.6.4,1.1.4s.8-.1,1-.3v.2c0,.3,0,.5-.2.6-.2.1-.4.2-.7.2s-.8,0-1.1-.2v.8c.3.1.7.2,1.2.2s1.1-.1,1.4-.4c.3-.3.5-.7.5-1.3v-2.3c.1,0,.2,0,.4,0v-.7ZM122.6,755.6c.1,0,.3,0,.4,0v.7c-.2,0-.4,0-.7,0s-.5,0-.6-.1c-.1,0-.2-.3-.2-.5v-2.9h1v2.7ZM122.1,752.4c-.2,0-.3,0-.4-.2-.1-.1-.2-.3-.2-.4s0-.3.2-.4c.1-.1.3-.2.4-.2s.3,0,.4.2c.1.1.2.3.2.4s0,.3-.2.4c-.1.1-.3.2-.4.2ZM119.1,755.5h-1.2v-1.3h1.3c.3,0,.5,0,.6.2.1.1.2.3.2.5,0,.5-.3.7-.8.7ZM119.6,752.8c0,.4-.3.6-.9.6h-1v-1.3c.3,0,.6,0,.8,0,.6,0,1,.2,1,.7ZM120.1,753.6c.4-.2.5-.6.5-1s-.2-.8-.5-1c-.3-.2-.8-.4-1.3-.4s-.9,0-1.2.2c-.1-.1-.3-.2-.6-.2s-.5,0-.7,0v.8h.6v4.2h2.1c.6,0,1.1-.1,1.4-.4.3-.3.5-.6.5-1.1s-.3-1-.8-1.2ZM98.5,752.8c.5,0,.9,0,1.2.3.3.2.4.4.4.7h-.9c0-.2-.3-.3-.6-.3s-.6.1-.6.3,0,.2.2.3c.1,0,.2.1.4.1.2,0,.3,0,.5,0,.2,0,.4,0,.5.2.2,0,.3.2.4.3.1.1.2.3.2.6,0,.3-.1.6-.4.8s-.7.3-1.2.3-1.1-.1-1.5-.4v-.8c.5.2,1,.4,1.5.4s.4,0,.5,0c0,0,.1-.1.1-.3s0-.2-.2-.3c-.1,0-.3-.1-.5-.1-.2,0-.4,0-.6-.1-.2,0-.4-.2-.5-.3-.1-.2-.2-.4-.2-.6s.1-.6.4-.8c.2-.2.6-.3,1.1-.3ZM95,753.6c.4,0,.6.1.6.4s0,.3-.3.4c-.2,0-.6.1-1.1.2,0-.3,0-.6.2-.7.2-.2.4-.2.6-.2ZM96.3,755.3c-.1,0-.3.2-.5.2-.2,0-.5.1-.7.1-.5,0-.8-.2-.9-.5.8,0,1.4-.1,1.7-.3.3-.2.5-.4.5-.8s-.1-.6-.4-.8c-.2-.2-.6-.3-1.1-.3s-1,.2-1.4.5c-.3.3-.5.8-.5,1.3s.1,1,.4,1.3c.3.3.7.5,1.3.5s.7,0,.9-.1c.3,0,.5-.2.6-.3l-.2-.8ZM92.3,755.6v-1.3c0-.5-.1-.8-.3-1.1-.2-.3-.5-.4-1-.4s-.8.2-1.1.5v-2.1h-1v5.1h1v-1.9c0-.2,0-.4.2-.6.1-.2.3-.2.6-.2.4,0,.7.3.7.8v1.2c0,.3,0,.5.2.6.1,0,.3.1.6.1s.4,0,.6,0v-.7c-.2,0-.3,0-.4,0ZM88.1,755.3l.2.8c-.4.3-.8.4-1.4.4s-1-.2-1.4-.5c-.3-.3-.5-.8-.5-1.4s.2-1,.5-1.3c.3-.3.7-.5,1.3-.5s.9.1,1.1.4c.2.3.4.6.4,1h-.9c0-.3-.2-.5-.6-.5s-.4,0-.6.2c-.1.2-.2.4-.2.7s0,.6.2.8c.2.2.4.3.7.3.4,0,.8-.1,1.2-.4ZM84.2,755.6v-2.7h-1v1.8c0,.3,0,.5-.2.7-.1.2-.3.3-.6.3s-.3,0-.4-.2c0-.1-.1-.3-.1-.6v-1.2c0-.3,0-.5-.2-.6-.1-.1-.3-.2-.6-.2s-.4,0-.5,0v.7c.1,0,.3,0,.4,0v1.3c0,.5,0,.9.3,1.1.2.2.5.3.9.3s1-.2,1.2-.6c.1.4.4.5.8.5s.3,0,.5,0v-.7c-.2,0-.3,0-.4,0ZM77.3,754.6c0,.3,0,.6.2.7.1.2.4.3.6.3s.5,0,.6-.3c.1-.2.2-.4.2-.7s0-.6-.2-.7c-.1-.2-.4-.3-.6-.3s-.5,0-.6.3c-.1.2-.2.4-.2.7ZM76.3,754.6c0-.6.2-1,.5-1.3.3-.3.8-.5,1.3-.5s1,.2,1.3.5c.3.3.5.8.5,1.3s-.2,1-.5,1.3c-.3.3-.8.5-1.3.5s-1-.2-1.3-.5c-.3-.3-.5-.8-.5-1.3ZM76.4,751.2h-2.7c-.4,0-.8,0-1.3,0v.8h1.5v4.2h1v-4.2h1.5v-.9ZM68.6,753.6c.4,0,.6.1.6.4s0,.3-.3.4c-.2,0-.6.1-1.1.2,0-.3,0-.6.2-.7.2-.2.4-.2.6-.2ZM69.8,755.3c-.1,0-.3.2-.5.2-.2,0-.5.1-.7.1-.5,0-.8-.2-.9-.5.8,0,1.4-.1,1.7-.3.3-.2.5-.4.5-.8s-.1-.6-.4-.8c-.2-.2-.6-.3-1.1-.3s-1,.2-1.4.5c-.3.3-.5.8-.5,1.3s.1,1,.4,1.3c.3.3.7.5,1.3.5s.7,0,.9-.1c.3,0,.5-.2.6-.3l-.2-.8ZM64.8,751.2h1v4.3c.1,0,.3,0,.5,0v.7c-.2,0-.4,0-.6,0s-.5,0-.7-.2c-.1-.1-.2-.3-.2-.6v-4.4ZM64.3,753.7v-.8h-1v-1h-1v1h-.6v.8h.6v1.7c0,.4,0,.7.2.9.2.2.4.2.8.2s.6,0,.9-.1v-.8c-.2,0-.4,0-.6,0s-.2,0-.3,0c0,0,0-.2,0-.3v-1.5h1ZM61.7,753.7v-.8h-1v-1h-1v1h-.6v.8h.6v1.7c0,.4,0,.7.2.9.2.2.4.2.8.2s.6,0,.9-.1v-.8c-.2,0-.4,0-.6,0s-.2,0-.3,0c0,0,0-.2,0-.3v-1.5h1ZM58.5,755.6c.1,0,.3,0,.4,0v.7c-.2,0-.4,0-.7,0s-.5,0-.6-.1c-.1,0-.2-.3-.2-.5v-2.9h1v2.7ZM58.1,752.4c-.2,0-.3,0-.4-.2-.1-.1-.2-.3-.2-.4s0-.3.2-.4c.1-.1.3-.2.4-.2s.3,0,.4.2c.1.1.2.3.2.4s0,.3-.2.4c-.1.1-.3.2-.4.2ZM54.7,755.5v-4.2h-1v5.1h3.4v-.9h-2.4Z"/>
  <path class="st2" d="M104.6,751.4c.7-.7,1.8-.7,2.5,0l3.4,3.4-2.5,2.5-3.4-3.4c-.7-.7-.7-1.8,0-2.5"/>
  <path class="st2" d="M111.5,751.4c-.7-.7-1.8-.7-2.5,0l-3.4,3.4,2.5,2.5,3.4-3.4c.7-.7.7-1.8,0-2.5"/>
  <path class="st5" d="M103.2,730.5c0,4.3-3.2,7.9-7.8,7.9s-7.9-3.6-7.9-8h0c0-4.4,3.2-8,7.8-8s7.9,3.6,7.9,8h0ZM110.1,730.5h0c0-8-6.1-14.4-14.7-14.4s-14.8,6.5-14.8,14.4h0c0,8,6.1,14.4,14.7,14.4s14.8-6.5,14.8-14.4Z"/>
  <path class="st2" d="M123.2,715.7h0c1.9,0,3.5,1.6,3.5,3.5v22c0,1.9-1.6,3.5-3.5,3.5h0c-1.9,0-3.5-1.6-3.5-3.5v-22c0-1.9,1.6-3.5,3.5-3.5"/>
  <path class="st2" d="M147.5,730.1h0c0-1.9,1.6-3.5,3.5-3.5h12.4c1.9,0,3.5,1.6,3.5,3.5s-1.6,3.5-3.5,3.5h-12.4c-1.9,0-3.5-1.6-3.5-3.5"/>
  <path class="st2" d="M150.9,716.3h0c1.9,0,3.5,1.6,3.5,3.5v20.7c0,1.9-1.6,3.5-3.5,3.5s-3.5-1.6-3.5-3.5v-20.7c0-1.9,1.6-3.5,3.5-3.5"/>
  <path class="st2" d="M147.5,719.3h0c0-1.9,1.6-3.5,3.5-3.5h14.1c1.9,0,3.5,1.6,3.5,3.5s-1.6,3.5-3.5,3.5h-14.1c-1.9,0-3.5-1.6-3.5-3.5"/>
  <path class="st2" d="M147.5,741.2h0c0-1.9,1.6-3.5,3.5-3.5h14.1c1.9,0,3.5,1.6,3.5,3.5h0c0,1.9-1.6,3.5-3.5,3.5h-14.1c-1.9,0-3.5-1.6-3.5-3.5"/>
  <path class="st2" d="M75.6,716.3h0c1.9,0,3.5,1.6,3.5,3.5v21.5c0,1.9-1.6,3.5-3.5,3.5h0c-1.9,0-3.5-1.6-3.5-3.5v-21.5c0-1.9,1.6-3.5,3.5-3.5"/>
  <path class="st2" d="M57.4,716.3h0c1.9,0,3.5,1.6,3.5,3.5v21.5c0,1.9-1.6,3.5-3.5,3.5s-3.5-1.6-3.5-3.5v-21.5c0-1.9,1.6-3.5,3.5-3.5"/>
  <path class="st2" d="M56.3,729.5h0c0-1.9,1.6-3.5,3.5-3.5h12.6c1.9,0,3.5,1.6,3.5,3.5h0c0,1.9-1.6,3.5-3.5,3.5h-12.6c-1.9,0-3.5-1.6-3.5-3.5"/>
  <path class="st2" d="M141.1,715.7h0c1.9,0,3.5,1.6,3.5,3.5v22c0,1.9-1.6,3.5-3.5,3.5h0c-1.9,0-3.5-1.6-3.5-3.5v-22c0-1.9,1.6-3.5,3.5-3.5"/>
  <path class="st2" d="M142.8,716.9h0c1.5,1.2,1.7,3.4.5,4.9l-17.3,21.4c-1.2,1.5-3.4,1.7-4.9.5h0c-1.5-1.2-1.7-3.4-.5-4.9l17.3-21.4c1.2-1.5,3.4-1.7,4.9-.5"/>
  <path class="st2" d="M173.7,730.6h0c0-1.9,1.6-3.5,3.5-3.5h11.8c1.9,0,3.5,1.6,3.5,3.5h0c0,1.9-1.6,3.5-3.5,3.5h-11.8c-1.9,0-3.5-1.6-3.5-3.5"/>
  <path class="st2" d="M183,721.3h0c1.9,0,3.5,1.6,3.5,3.5v11.8c0,1.9-1.6,3.5-3.5,3.5h0c-1.9,0-3.5-1.6-3.5-3.5v-11.8c0-1.9,1.6-3.5,3.5-3.5"/>
  <path class="st2" d="M125.1,716.9h0c1.5,1.2,1.7,3.4.5,4.9l-17.4,21.5c-1.2,1.5-3.4,1.7-4.9.5h0c-1.5-1.2-1.7-3.4-.5-4.9l17.4-21.5c1.2-1.5,3.4-1.7,4.9-.5"/>
  <path class="st5" d="M103,730.5c0,4.2-3.1,7.7-7.6,7.7s-7.7-3.5-7.7-7.7h0c0-4.3,3.1-7.7,7.6-7.7s7.7,3.5,7.7,7.7h0ZM109.7,730.5h0c0-7.8-6-14-14.3-14s-14.4,6.3-14.4,14h0c0,7.8,6,14,14.3,14s14.4-6.3,14.4-14Z"/>
</svg>