<?xml version="1.0" encoding="UTF-8"?>
<svg id="Layer_1" xmlns="http://www.w3.org/2000/svg" version="1.1" viewBox="0 0 545.4 814.5">
  <!-- Generator: Adobe Illustrator 30.4.0, SVG Export Plug-In . SVG Version: 2.1.3 Build 135)  -->
  <defs>
    <style>
      .st0 {
        fill: #ed3438;
      }

      .st0, .st1 {
        fill-rule: evenodd;
      }

      .st2, .st1 {
        fill: #639d7b;
      }
    </style>
  </defs>
  <path class="st2" d="M65.4,108.4l7.1-24.2c2.3-7.8,5.1-21.4,5.1-21.4h.3s2.8,13.6,5.1,21.4l7,24.2h-24.6ZM19.4,159h31.4l7.5-26.1h38.9l7.7,26.1h31.4l-42.4-124.6h-32.1l-42.4,124.6Z"/>
  <path class="st2" d="M135.4,159h30.2v-40.4c0-13.8,6.5-24.1,19.5-24.1s9.9,3.5,9.9,11.9v52.6h30.2v-58.2c0-25.3-14.1-33.6-32.3-33.6s-22.3,5.4-27.4,14.3h-.3s.3-3.1.3-7.7v-39.4h-30.2v124.6Z"/>
  <path class="st2" d="M257.7,130.9c0-8.2,11.9-10.6,21.1-10.6h2.8v2.4c0,7.3-6.6,15.9-15.3,15.9s-8.5-3.5-8.5-7.7M227.9,133.7c0,15.5,12,27.4,29.3,27.4s20.7-4.7,26.7-13.1h.3s-.3,2.6-.3,5.6v5.4h27.5v-55.3c0-22.8-15.3-36.6-40.1-36.6s-30.3,5.8-38,11.7l10.5,21.3c7.1-4.7,16-8.5,24.8-8.5s12.7,2.4,12.7,9.9v1.6h-2.6c-22.1,0-50.7,6.6-50.7,30.7Z"/>
  <path class="st2" d="M343.7,130.9c0-8.2,11.9-10.6,21.1-10.6h2.8v2.4c0,7.3-6.6,15.9-15.3,15.9s-8.5-3.5-8.5-7.7M313.9,133.7c0,15.5,12,27.4,29.3,27.4s20.7-4.7,26.7-13.1h.3s-.3,2.6-.3,5.6v5.4h27.5v-55.3c0-22.8-15.3-36.6-40.1-36.6s-30.3,5.8-38,11.7l10.5,21.3c7.1-4.7,16-8.5,24.8-8.5s12.7,2.4,12.7,9.9v1.6h-2.6c-22.1,0-50.7,6.6-50.7,30.7Z"/>
  <path class="st2" d="M495.2,159h27.5v-26.1h-27.5v26.1ZM496,120.4h25.8l2.8-86.1h-31.4l2.8,86.1Z"/>
  <path class="st2" d="M429.7,130.9c0-8.2,11.9-10.6,21.1-10.6h2.8v2.4c0,7.3-6.6,15.9-15.3,15.9s-8.5-3.5-8.5-7.7M399.9,133.7c0,15.5,12,27.4,29.3,27.4s20.7-4.7,26.7-13.1h.3s-.3,2.6-.3,5.6v5.4h27.5v-55.3c0-22.8-15.3-36.6-40.1-36.6s-30.3,5.8-38,11.7l10.5,21.3c7.1-4.7,16-8.5,24.8-8.5s12.7,2.4,12.7,9.9v1.6h-2.6c-22.1,0-50.7,6.6-50.7,30.7Z"/>
  <path class="st2" d="M177.6,756.4c-.2,0-.3,0-.4-.2-.1-.1-.2-.3-.2-.4s0-.3.2-.4c.1-.1.3-.2.4-.2s.3,0,.4.2c.1.1.2.3.2.4s0,.3-.2.4c-.1.1-.3.2-.4.2M174.6,752.8c.5,0,.9,0,1.2.3.3.2.4.4.4.7h-.9c0-.2-.3-.3-.6-.3s-.6.1-.6.3,0,.2.2.3c.1,0,.2.1.4.1.2,0,.3,0,.5,0,.2,0,.4,0,.5.2.2,0,.3.2.4.3.1.1.2.3.2.6,0,.3-.1.6-.4.8s-.7.3-1.2.3-1.1-.1-1.5-.4v-.8c.5.2,1,.4,1.5.4s.4,0,.5,0c0,0,.1-.1.1-.3s0-.2-.2-.3c-.1,0-.3-.1-.5-.1-.2,0-.4,0-.6-.1-.2,0-.4-.2-.5-.3-.1-.2-.2-.4-.2-.6s.1-.6.4-.8c.2-.2.6-.3,1.1-.3ZM171.1,753.6c.4,0,.6.1.6.4s0,.3-.3.4c-.2,0-.6.1-1.1.2,0-.3,0-.6.2-.7.2-.2.4-.2.6-.2ZM172.4,755.3c-.1,0-.3.2-.5.2-.2,0-.5.1-.7.1-.5,0-.8-.2-.9-.5.8,0,1.4-.1,1.7-.3.3-.2.5-.4.5-.8s-.1-.6-.4-.8c-.2-.2-.6-.3-1.1-.3s-1,.2-1.4.5c-.3.3-.5.8-.5,1.3s.1,1,.4,1.3c.3.3.7.5,1.3.5s.7,0,.9-.1c.3,0,.5-.2.6-.3l-.2-.8ZM168.6,755.3l.2.8c-.4.3-.8.4-1.4.4s-1-.2-1.4-.5c-.3-.3-.5-.8-.5-1.4s.2-1,.5-1.3c.3-.3.7-.5,1.3-.5s.9.1,1.1.4c.2.3.4.6.4,1h-.9c0-.3-.2-.5-.6-.5s-.4,0-.6.2c-.1.2-.2.4-.2.7s0,.6.2.8c.2.2.4.3.7.3.4,0,.8-.1,1.2-.4ZM164.7,755.6v-1.3c0-.5-.1-.8-.3-1.1-.2-.3-.5-.4-1-.4s-.9.2-1.2.5c-.1-.4-.4-.5-.8-.5s-.3,0-.5,0v.7c.1,0,.3,0,.4,0v2.7h1v-1.9c0-.2,0-.4.2-.6.1-.2.3-.2.6-.2.4,0,.7.3.7.8v1.2c0,.3,0,.5.2.6.1,0,.3.1.6.1s.4,0,.6,0v-.7c-.2,0-.3,0-.4,0ZM159,753.6c.4,0,.6.1.6.4s0,.3-.3.4c-.2,0-.6.1-1.1.2,0-.3,0-.6.2-.7.2-.2.4-.2.6-.2ZM160.2,755.3c-.1,0-.3.2-.5.2-.2,0-.5.1-.7.1-.5,0-.8-.2-.9-.5.8,0,1.4-.1,1.7-.3.3-.2.5-.4.5-.8s-.1-.6-.4-.8c-.2-.2-.6-.3-1.1-.3s-1,.2-1.4.5c-.3.3-.5.8-.5,1.3s.1,1,.4,1.3c.3.3.7.5,1.3.5s.7,0,.9-.1c.3,0,.5-.2.6-.3l-.2-.8ZM156.5,752.8c-.3,0-.6.2-.8.6-.1-.4-.4-.6-.7-.6s-.3,0-.5,0v.7c.2,0,.3,0,.4,0v2.7h1v-1.6c0-.3,0-.6.2-.7.1-.2.3-.3.5-.3s.2,0,.3,0v-.9s-.2,0-.3,0ZM152.5,753.6c.4,0,.6.1.6.4s0,.3-.3.4c-.2,0-.6.1-1.1.2,0-.3,0-.6.2-.7.2-.2.4-.2.6-.2ZM153.8,755.3c-.1,0-.3.2-.5.2-.2,0-.5.1-.7.1-.5,0-.8-.2-.9-.5.8,0,1.4-.1,1.7-.3.3-.2.5-.4.5-.8s-.1-.6-.4-.8c-.2-.2-.6-.3-1.1-.3s-1,.2-1.4.5c-.3.3-.5.8-.5,1.3s.1,1,.4,1.3c.3.3.7.5,1.3.5s.7,0,.9-.1c.3,0,.5-.2.6-.3l-.2-.8ZM149.9,752c.1,0,.3,0,.5.1v-.8c-.2-.1-.5-.2-.8-.2-.8,0-1.2.4-1.2,1.3v.5h-.6v.8h.6v2.7h1v-2.7h1v-.8h-1v-.4c0-.3.2-.5.5-.5ZM147.4,752c.1,0,.3,0,.5.1v-.8c-.2-.1-.5-.2-.8-.2-.8,0-1.2.4-1.2,1.3v.5h-.6v.8h.6v2.7h1v-2.7h1v-.8h-1v-.4c0-.3.2-.5.5-.5ZM144.7,755.6c.1,0,.3,0,.4,0v.7c-.2,0-.4,0-.7,0s-.5,0-.6-.1c-.1,0-.2-.3-.2-.5v-2.9h1v2.7ZM144.2,752.4c-.2,0-.3,0-.4-.2-.1-.1-.2-.3-.2-.4s0-.3.2-.4c.1-.1.3-.2.4-.2s.3,0,.4.2c.1.1.2.3.2.4s0,.3-.2.4c-.1.1-.3.2-.4.2ZM140.1,755.5h-.6v-3.3c.3,0,.5,0,.7,0,.5,0,.9.2,1.2.5.3.3.4.7.4,1.3s-.2,1-.5,1.3c-.3.3-.8.4-1.4.4ZM140.4,751.2c-.4,0-.7,0-1.1.2-.1-.1-.3-.2-.6-.2s-.5,0-.7,0v.8h.6v4.2h1.5c.9,0,1.6-.2,2.1-.7.5-.5.8-1.1.8-1.9s-.2-1.4-.7-1.9c-.4-.5-1.1-.7-1.8-.7ZM133.3,755.4c-.2,0-.4,0-.6-.2-.1-.1-.2-.4-.2-.6s0-.5.2-.7c.2-.2.4-.2.7-.2s.5,0,.7.2v.8c0,.2,0,.4-.2.6-.2.1-.4.2-.6.2ZM135.5,752.9c-.2,0-.3,0-.5,0s-.5,0-.6.3c-.3-.2-.7-.3-1-.3s-.9.2-1.2.5c-.3.3-.5.7-.5,1.3s.1.9.4,1.2c.3.3.6.4,1.1.4s.8-.1,1-.3v.2c0,.3,0,.5-.2.6-.2.1-.4.2-.7.2s-.8,0-1.1-.2v.8c.3.1.7.2,1.2.2s1.1-.1,1.4-.4c.3-.3.5-.7.5-1.3v-2.3c.1,0,.2,0,.4,0v-.7ZM130.8,755.6c.1,0,.3,0,.4,0v.7c-.2,0-.4,0-.7,0s-.5,0-.6-.1c-.1,0-.2-.3-.2-.5v-2.9h1v2.7ZM130.3,752.4c-.2,0-.3,0-.4-.2-.1-.1-.2-.3-.2-.4s0-.3.2-.4c.1-.1.3-.2.4-.2s.3,0,.4.2c.1.1.2.3.2.4s0,.3-.2.4c-.1.1-.3.2-.4.2ZM127.2,755.5h-1.2v-1.3h1.3c.3,0,.5,0,.6.2.1.1.2.3.2.5,0,.5-.3.7-.8.7ZM127.8,752.8c0,.4-.3.6-.9.6h-1v-1.3c.3,0,.6,0,.9,0,.6,0,1,.2,1,.7ZM128.2,753.6c.4-.2.5-.6.5-1s-.2-.8-.5-1c-.3-.2-.8-.4-1.3-.4s-.9,0-1.2.2c-.1-.1-.3-.2-.6-.2s-.5,0-.7,0v.8h.6v4.2h2.1c.6,0,1.1-.1,1.4-.4.3-.3.5-.6.5-1.1s-.3-1-.8-1.2ZM106.6,752.8c.5,0,.9,0,1.2.3.3.2.4.4.4.7h-.9c0-.2-.3-.3-.6-.3s-.6.1-.6.3,0,.2.2.3c.1,0,.2.1.4.1.2,0,.3,0,.5,0s.4,0,.5.2c.2,0,.3.2.4.3.1.1.2.3.2.6,0,.3-.1.6-.4.8-.3.2-.7.3-1.2.3s-1.1-.1-1.5-.4v-.8c.5.2,1,.4,1.5.4s.4,0,.5,0c0,0,.1-.1.1-.3s0-.2-.2-.3c-.1,0-.3-.1-.5-.1-.2,0-.4,0-.6-.1-.2,0-.4-.2-.5-.3-.1-.2-.2-.4-.2-.6s.1-.6.4-.8c.2-.2.6-.3,1.1-.3ZM103.2,753.6c.4,0,.6.1.6.4s0,.3-.3.4c-.2,0-.6.1-1.1.2,0-.3,0-.6.2-.7.2-.2.4-.2.6-.2ZM104.4,755.3c-.1,0-.3.2-.5.2-.2,0-.5.1-.7.1-.5,0-.8-.2-.9-.5.8,0,1.4-.1,1.7-.3.3-.2.5-.4.5-.8s-.1-.6-.4-.8c-.2-.2-.6-.3-1.1-.3s-1,.2-1.4.5c-.3.3-.5.8-.5,1.3s.1,1,.4,1.3c.3.3.7.5,1.3.5s.7,0,.9-.1c.3,0,.5-.2.6-.3l-.2-.8ZM100.5,755.6v-1.3c0-.5-.1-.8-.3-1.1-.2-.3-.5-.4-1-.4s-.8.2-1.1.5v-2.1h-1v5.1h1v-1.9c0-.2,0-.4.2-.6.1-.2.3-.2.6-.2.4,0,.7.3.7.8v1.2c0,.3,0,.5.2.6.1,0,.3.1.6.1s.4,0,.6,0v-.7c-.2,0-.3,0-.4,0ZM96.3,755.3l.2.8c-.4.3-.8.4-1.4.4s-1-.2-1.4-.5c-.3-.3-.5-.8-.5-1.4s.2-1,.5-1.3c.3-.3.7-.5,1.3-.5s.9.1,1.1.4c.2.3.4.6.4,1h-.9c0-.3-.2-.5-.6-.5s-.4,0-.6.2c-.1.2-.2.4-.2.7s0,.6.2.8c.2.2.4.3.7.3.4,0,.8-.1,1.2-.4ZM92.3,755.6v-2.7h-1v1.8c0,.3,0,.5-.2.7-.1.2-.3.3-.6.3s-.3,0-.4-.2c0-.1-.1-.3-.1-.6v-1.2c0-.3,0-.5-.2-.6-.1-.1-.3-.2-.6-.2s-.4,0-.5,0v.7c.1,0,.3,0,.4,0v1.3c0,.5,0,.9.3,1.1.2.2.5.3.9.3s1-.2,1.2-.6c.1.4.4.5.8.5s.3,0,.5,0v-.7c-.2,0-.3,0-.4,0ZM85.5,754.6c0,.3,0,.6.2.7.1.2.4.3.6.3s.5,0,.6-.3c.1-.2.2-.4.2-.7s0-.6-.2-.7c-.1-.2-.4-.3-.6-.3s-.5,0-.6.3c-.1.2-.2.4-.2.7ZM84.5,754.6c0-.6.2-1,.5-1.3.3-.3.8-.5,1.3-.5s1,.2,1.3.5c.3.3.5.8.5,1.3s-.2,1-.5,1.3c-.3.3-.8.5-1.3.5s-1-.2-1.3-.5c-.3-.3-.5-.8-.5-1.3ZM84.5,751.2h-2.7c-.4,0-.8,0-1.3,0v.8h1.5v4.2h1v-4.2h1.5v-.9ZM76.7,753.6c.4,0,.6.1.6.4s0,.3-.3.4c-.2,0-.6.1-1.1.2,0-.3,0-.6.2-.7.2-.2.4-.2.6-.2ZM78,755.3c-.1,0-.3.2-.5.2-.2,0-.5.1-.7.1-.5,0-.8-.2-.9-.5.8,0,1.4-.1,1.7-.3.3-.2.5-.4.5-.8s-.1-.6-.4-.8c-.2-.2-.6-.3-1.1-.3s-1,.2-1.4.5c-.3.3-.5.8-.5,1.3s.1,1,.4,1.3c.3.3.7.5,1.3.5s.7,0,.9-.1c.3,0,.5-.2.6-.3l-.2-.8ZM73,751.2h1v4.3c.1,0,.3,0,.5,0v.7c-.2,0-.4,0-.6,0s-.5,0-.7-.2c-.1-.1-.2-.3-.2-.6v-4.4ZM72.4,753.7v-.8h-1v-1h-1v1h-.6v.8h.6v1.7c0,.4,0,.7.2.9.2.2.4.2.8.2s.6,0,.9-.1v-.8c-.2,0-.4,0-.6,0s-.2,0-.3,0c0,0,0-.2,0-.3v-1.5h1ZM69.8,753.7v-.8h-1v-1h-1v1h-.6v.8h.6v1.7c0,.4,0,.7.2.9.2.2.4.2.8.2s.6,0,.9-.1v-.8c-.2,0-.4,0-.6,0s-.2,0-.3,0c0,0,0-.2,0-.3v-1.5h1ZM66.7,755.6c.1,0,.3,0,.4,0v.7c-.2,0-.4,0-.7,0s-.5,0-.6-.1c-.1,0-.2-.3-.2-.5v-2.9h1v2.7ZM66.2,752.4c-.2,0-.3,0-.4-.2-.1-.1-.2-.3-.2-.4s0-.3.2-.4c.1-.1.3-.2.4-.2s.3,0,.4.2c.1.1.2.3.2.4s0,.3-.2.4c-.1.1-.3.2-.4.2ZM62.8,755.5v-4.2h-1v5.1h3.4v-.9h-2.4Z"/>
  <path class="st1" d="M112.8,751.4c.7-.7,1.8-.7,2.5,0l3.4,3.4-2.5,2.5-3.4-3.4c-.7-.7-.7-1.8,0-2.5"/>
  <path class="st1" d="M119.6,751.4c-.7-.7-1.8-.7-2.5,0l-3.4,3.4,2.5,2.5,3.4-3.4c.7-.7.7-1.8,0-2.5"/>
  <path class="st2" d="M111.3,730.5c0,4.3-3.2,7.9-7.8,7.9s-7.9-3.6-7.9-7.9h0c0-4.4,3.2-8,7.8-8s7.9,3.6,7.9,8h0ZM118.2,730.5h0c0-8-6.1-14.4-14.7-14.4s-14.8,6.5-14.8,14.4h0c0,8,6.1,14.4,14.7,14.4s14.8-6.5,14.8-14.4Z"/>
  <path class="st1" d="M131.3,715.7h0c1.9,0,3.5,1.6,3.5,3.5v22c0,1.9-1.6,3.5-3.5,3.5h0c-1.9,0-3.5-1.6-3.5-3.5v-22c0-1.9,1.6-3.5,3.5-3.5"/>
  <path class="st1" d="M155.6,730.1h0c0-1.9,1.6-3.5,3.5-3.5h12.4c1.9,0,3.5,1.6,3.5,3.5s-1.6,3.5-3.5,3.5h-12.4c-1.9,0-3.5-1.6-3.5-3.5"/>
  <path class="st1" d="M159.1,716.3h0c1.9,0,3.5,1.6,3.5,3.5v20.7c0,1.9-1.6,3.5-3.5,3.5s-3.5-1.6-3.5-3.5v-20.7c0-1.9,1.6-3.5,3.5-3.5"/>
  <path class="st1" d="M155.6,719.3h0c0-1.9,1.6-3.5,3.5-3.5h14.1c1.9,0,3.5,1.6,3.5,3.5s-1.6,3.5-3.5,3.5h-14.1c-1.9,0-3.5-1.6-3.5-3.5"/>
  <path class="st1" d="M155.6,741.2h0c0-1.9,1.6-3.5,3.5-3.5h14.1c1.9,0,3.5,1.6,3.5,3.5h0c0,1.9-1.6,3.5-3.5,3.5h-14.1c-1.9,0-3.5-1.6-3.5-3.5"/>
  <path class="st1" d="M83.7,716.3h0c1.9,0,3.5,1.6,3.5,3.5v21.5c0,1.9-1.6,3.5-3.5,3.5h0c-1.9,0-3.5-1.6-3.5-3.5v-21.5c0-1.9,1.6-3.5,3.5-3.5"/>
  <path class="st1" d="M65.6,716.3h0c1.9,0,3.5,1.6,3.5,3.5v21.5c0,1.9-1.6,3.5-3.5,3.5s-3.5-1.6-3.5-3.5v-21.5c0-1.9,1.6-3.5,3.5-3.5"/>
  <path class="st1" d="M64.5,729.5h0c0-1.9,1.6-3.5,3.5-3.5h12.6c1.9,0,3.5,1.6,3.5,3.5h0c0,1.9-1.6,3.5-3.5,3.5h-12.6c-1.9,0-3.5-1.6-3.5-3.5"/>
  <path class="st1" d="M149.2,715.7h0c1.9,0,3.5,1.6,3.5,3.5v22c0,1.9-1.6,3.5-3.5,3.5h0c-1.9,0-3.5-1.6-3.5-3.5v-22c0-1.9,1.6-3.5,3.5-3.5"/>
  <path class="st1" d="M151,716.9h0c1.5,1.2,1.7,3.4.5,4.9l-17.3,21.4c-1.2,1.5-3.4,1.7-4.9.5h0c-1.5-1.2-1.7-3.4-.5-4.9l17.3-21.4c1.2-1.5,3.4-1.7,4.9-.5"/>
  <path class="st1" d="M181.8,730.6h0c0-1.9,1.6-3.5,3.5-3.5h11.8c1.9,0,3.5,1.6,3.5,3.5h0c0,1.9-1.6,3.5-3.5,3.5h-11.8c-1.9,0-3.5-1.6-3.5-3.5"/>
  <path class="st1" d="M191.2,721.3h0c1.9,0,3.5,1.6,3.5,3.5v11.8c0,1.9-1.6,3.5-3.5,3.5h0c-1.9,0-3.5-1.6-3.5-3.5v-11.8c0-1.9,1.6-3.5,3.5-3.5"/>
  <path class="st1" d="M133.2,716.9h0c1.5,1.2,1.7,3.4.5,4.9l-17.4,21.5c-1.2,1.5-3.4,1.7-4.9.5h0c-1.5-1.2-1.7-3.4-.5-4.9l17.4-21.5c1.2-1.5,3.4-1.7,4.9-.5"/>
  <path class="st2" d="M111.1,730.5c0,4.2-3.1,7.7-7.6,7.7s-7.7-3.5-7.7-7.7h0c0-4.3,3.1-7.7,7.6-7.7s7.7,3.5,7.7,7.7h0ZM117.8,730.5h0c0-7.8-6-14-14.3-14s-14.4,6.3-14.4,14h0c0,7.8,6,14,14.3,14s14.4-6.3,14.4-14Z"/>
  <path class="st2" d="M217.9,46.8c0,6.3,4.3,11.2,10.9,11.2s6.4-1.6,8.2-3.3l-1.2-1.5c-1.8,1.8-4.4,2.8-6.9,2.8-5.3,0-8.7-4.2-8.7-9.3s3.4-8.9,8.6-8.9,4.9.9,6.6,2.3l1.1-1.6c-2-2-5-2.8-7.7-2.8-6.3,0-10.8,4.7-10.8,11"/>
  <path class="st2" d="M239,56.7c1,.7,2.2,1.3,3.5,1.3,2.3,0,3.5-1.7,4.3-3.8l7-18.1h-2.3l-4.5,12c-.5,1.3-.9,2.8-.9,2.8h0s-.6-1.5-1.2-2.8l-5.9-12h-2.3l8.5,17c-.7,1.8-1.3,2.9-2.7,2.9s-2-.7-2.5-1l-1,1.6Z"/>
  <polygon class="st2" points="255.7 57.6 257.8 57.6 257.8 38.1 270 38.1 270 57.6 272.1 57.6 272.1 36.2 255.7 36.2 255.7 57.6"/>
  <polygon class="st2" points="276.5 57.6 289.2 57.6 289.2 55.7 278.6 55.7 278.6 47.8 286.8 47.8 286.8 45.9 278.6 45.9 278.6 38.1 288.6 38.1 288.6 36.2 276.5 36.2 276.5 57.6"/>
  <path class="st2" d="M294,47.3v-9.2h5.1c2.8,0,4.7,1.7,4.7,4.6s-1.9,4.7-4.7,4.7h-5ZM291.9,57.6h2.1v-8.4h5.3c3.8,0,6.6-2.6,6.6-6.6s-2.8-6.5-6.6-6.5h-7.4v21.4Z"/>
  <polygon class="st2" points="316 57.6 318.1 57.6 318.1 38.1 330.2 38.1 330.2 57.6 332.3 57.6 332.3 36.2 316 36.2 316 57.6"/>
  <path class="st2" d="M337.5,46.7c0-5.1,3.9-8.9,8.7-8.9s8.7,3.9,8.7,8.9-3.9,9.3-8.7,9.3-8.7-4-8.7-9.3M335.3,46.7c0,6.3,4.8,11.3,10.9,11.3s10.9-4.9,10.9-11.3-4.8-10.9-10.9-10.9-10.9,4.8-10.9,10.9Z"/>
  <polygon class="st2" points="360.2 57.6 362.3 57.6 362.3 47.8 374.8 47.8 374.8 57.6 376.9 57.6 376.9 36.2 374.8 36.2 374.8 45.9 362.3 45.9 362.3 36.2 360.2 36.2 360.2 57.6"/>
  <path class="st2" d="M380.8,56.7c1,.7,2.2,1.3,3.5,1.3,2.3,0,3.5-1.7,4.3-3.8l7-18.1h-2.3l-4.5,12c-.5,1.3-.9,2.8-.9,2.8h0s-.6-1.5-1.2-2.8l-5.9-12h-2.3l8.5,17c-.7,1.8-1.3,2.9-2.7,2.9s-2-.7-2.5-1l-1,1.6Z"/>
  <path class="st2" d="M393.1,55.7v6.2h2v-4.3h15.9v4.3h2v-6.2h-2.4v-19.6h-11.8v4.2c0,5-.3,11-3.6,15.4h-2.2ZM397.5,55.7c2.8-4.1,3.4-10.1,3.4-15.3v-2.3h7.6v17.7h-11Z"/>
  <path class="st2" d="M418.5,49l2.8-7.8c.4-1,.8-2.8.8-2.8h0s.5,1.8.8,2.8l2.8,7.8h-7.4ZM413.2,57.6h2.2l2.4-6.8h8.6l2.5,6.8h2.2l-7.9-21.4h-2.3l-7.9,21.4Z"/>
  <path class="st0" d="M210.2,238.6h-119c-32.6,0-59.2,26.6-59.2,59.2h0c0,32.6,26.7,59.2,59.2,59.2h176.5c31,0,56.6-24.1,59-54.6h.2v-4.6h0v-59.2h-116.7Z"/>
</svg>